<svg width="54" height="54" viewBox="0 0 54 54" fill="none" xmlns="http://www.w3.org/2000/svg">
<circle cx="26.6667" cy="26.6667" r="26.1667" fill="white" fill-opacity="0.2" stroke="white"/>
<path d="M20.4683 27.9128H23.651V40.5484C23.651 40.7979 23.8606 41 24.1193 41H29.5156C29.7743 41 29.9839 40.7979 29.9839 40.5484V27.9723H33.6426C33.8805 27.9723 34.0806 27.8002 34.1078 27.5723L34.6635 22.9205C34.6788 22.7925 34.6367 22.6643 34.5479 22.5683C34.459 22.4722 34.3318 22.4172 34.1984 22.4172H29.984V19.5012C29.984 18.6222 30.4748 18.1765 31.4429 18.1765C31.5809 18.1765 34.1984 18.1765 34.1984 18.1765C34.4571 18.1765 34.6667 17.9742 34.6667 17.7249V13.455C34.6667 13.2055 34.4571 13.0033 34.1984 13.0033H30.4009C30.3741 13.0021 30.3147 13 30.227 13C29.5681 13 27.2778 13.1247 25.4687 14.7298C23.4642 16.5084 23.7428 18.638 23.8094 19.0073V22.4171H20.4683C20.2096 22.4171 20 22.6193 20 22.8687V27.4611C20 27.7106 20.2096 27.9128 20.4683 27.9128Z" fill="white"/>
</svg>
