<svg width="48" height="48" viewBox="0 0 48 48" fill="none" xmlns="http://www.w3.org/2000/svg">
<ellipse cx="23.5087" cy="24" rx="24" ry="23.5087" transform="rotate(-90 23.5087 24)" fill="#1492C8"/>
<path d="M25.1534 16.9356L25.1534 33.4335C25.1283 33.6982 24.9959 33.9447 24.7821 34.1243C24.5684 34.3039 24.289 34.4035 23.9991 34.4035C23.7091 34.4035 23.4297 34.3039 23.216 34.1243C23.0023 33.9447 22.8698 33.6982 22.8447 33.4335L22.8447 16.9356L16.7252 22.5451C16.6225 22.661 16.4943 22.7557 16.349 22.8232C16.2037 22.8906 16.0444 22.9292 15.8817 22.9364C15.719 22.9436 15.5565 22.9193 15.4047 22.865C15.2529 22.8108 15.1153 22.7278 15.0009 22.6216C14.8865 22.5153 14.7978 22.3881 14.7407 22.2483C14.6835 22.1085 14.6592 21.9592 14.6692 21.8102C14.6792 21.6612 14.7235 21.5158 14.799 21.3836C14.8745 21.2513 14.9796 21.1351 15.1074 21.0425L23.1894 13.6345C23.4057 13.4415 23.6957 13.3335 23.9976 13.3335C24.2995 13.3335 24.5895 13.4415 24.8058 13.6345L32.8893 21.0425C33.0179 21.1348 33.1237 21.2509 33.1999 21.3832C33.276 21.5156 33.3208 21.6612 33.3313 21.8106C33.3417 21.9599 33.3176 22.1096 33.2606 22.2498C33.2035 22.39 33.1147 22.5175 33.0001 22.6241C32.8855 22.7307 32.7475 22.8138 32.5954 22.8681C32.4432 22.9224 32.2803 22.9466 32.1172 22.9392C31.9541 22.9317 31.7946 22.8927 31.6491 22.8248C31.5036 22.7569 31.3754 22.6616 31.2729 22.5451L25.1534 16.925L25.1534 16.9356Z" fill="white"/>
</svg>
