<svg width="277" height="51" viewBox="0 0 277 51" fill="none" xmlns="http://www.w3.org/2000/svg">
<path d="M61.1319 30.4811V9.28217H53.3945V4.41309H74.4858V9.30514H66.795V30.4811H61.1319Z" fill="#453B3D"/>
<path d="M72.8574 21.0186C72.8574 15.5523 76.9825 11.1426 82.7622 11.1426C88.5185 11.1426 92.3639 15.3686 92.3639 21.5009V22.6722H78.1244C78.474 24.9689 80.385 26.8982 83.6477 26.8982C85.2791 26.8982 87.4931 26.2322 88.7283 25.0608L90.9889 28.3451C89.0779 30.0677 86.0715 30.9634 83.0884 30.9634C77.2621 30.9405 72.8574 27.0819 72.8574 21.0186ZM82.7855 15.1848C79.6626 15.1848 78.3108 17.3438 78.1011 19.2041H87.5397C87.3766 17.4127 86.1181 15.1848 82.7855 15.1848Z" fill="#453B3D"/>
<path d="M94.7852 21.0186C94.7852 15.2308 99.0733 11.1426 104.946 11.1426C108.862 11.1426 111.262 12.8192 112.52 14.5418L109.234 17.5964C108.326 16.2643 106.927 15.5753 105.179 15.5753C102.126 15.5753 99.9822 17.7572 99.9822 21.0415C99.9822 24.3259 102.126 26.5537 105.179 26.5537C106.927 26.5537 108.302 25.7728 109.234 24.4866L112.52 27.5413C111.262 29.2638 108.862 30.9864 104.946 30.9864C99.0733 30.9405 94.7852 26.8293 94.7852 21.0186Z" fill="#453B3D"/>
<path d="M128.786 30.4811V18.9974C128.786 16.3791 127.388 15.5523 125.267 15.5523C123.286 15.5523 121.748 16.6547 120.909 17.7342V30.4811H115.828V4.41309H120.909V14.0364C122.144 12.6354 124.474 11.1425 127.621 11.1425C131.816 11.1425 133.843 13.4163 133.843 17.0911V30.4811H128.786Z" fill="#453B3D"/>
<path d="M151.743 30.4811V19.0663C151.743 16.448 150.345 15.5523 148.224 15.5523C146.243 15.5523 144.728 16.6548 143.866 17.7342V30.4811H138.832V11.6019H143.866V14.0365C145.101 12.6355 147.478 11.1426 150.578 11.1426C154.819 11.1426 156.847 13.4853 156.847 17.16V30.4811H151.743Z" fill="#453B3D"/>
<path d="M160.555 21.0186C160.555 15.6672 164.353 11.1426 170.669 11.1426C177.008 11.1426 180.83 15.6672 180.83 21.0186C180.83 26.37 177.031 30.9405 170.669 30.9405C164.353 30.9405 160.555 26.37 160.555 21.0186ZM175.563 21.0186C175.563 18.0787 173.815 15.5523 170.646 15.5523C167.523 15.5523 165.775 18.1017 165.775 21.0186C165.775 23.9813 167.523 26.5307 170.646 26.5307C173.839 26.5307 175.563 23.9813 175.563 21.0186Z" fill="#453B3D"/>
<path d="M207.699 30.4811V11.6708L200.242 30.4581H197.771L190.314 11.6708V30.4811H184.674V4.41309H192.574L199.007 20.7199L205.439 4.41309H213.363V30.4811H207.699Z" fill="#453B3D"/>
<path d="M229.977 30.4811V28.483C228.672 30.0447 226.411 30.9405 223.918 30.9405C220.865 30.9405 217.299 28.9193 217.299 24.6933C217.299 20.2377 220.865 18.607 223.918 18.607C226.504 18.607 228.718 19.4338 229.977 20.9037V18.5151C229.977 16.6088 228.322 15.3456 225.782 15.3456C223.754 15.3456 221.867 16.1265 220.259 17.5734L218.278 14.1054C220.608 12.0383 223.638 11.1426 226.644 11.1426C231.049 11.1426 235.057 12.8651 235.057 18.2854V30.4811H229.977ZM229.977 25.9336V23.5909C229.138 22.4885 227.553 21.9143 225.922 21.9143C223.941 21.9143 222.309 22.9708 222.309 24.7622C222.309 26.5537 223.941 27.5872 225.922 27.5872C227.553 27.5872 229.138 27.036 229.977 25.9336Z" fill="#453B3D"/>
<path d="M240.025 30.4811V11.6019H245.059V14.1513C246.458 12.5206 248.788 11.1426 251.165 11.1426V15.9887C250.816 15.9198 250.373 15.8739 249.767 15.8739C248.112 15.8739 245.875 16.8155 245.059 18.0328V30.4811H240.025Z" fill="#453B3D"/>
<path d="M266.707 30.4811L261.626 23.2234L259.319 25.6579V30.4811H254.285V4.41309H259.319V20.0079L266.567 11.6019H272.743L265.192 20.1457L272.999 30.4581H266.707V30.4811Z" fill="#453B3D"/>
<path d="M10.0004 47.1539H3.19531V34.3381L10.0004 30.3418V47.1539Z" fill="#1492C8"/>
<path d="M21.8169 47.1544H15.0117V26.3918L21.8169 22.3955V47.1544Z" fill="#1492C8"/>
<path d="M33.6333 47.1554H26.8281V15.8508L33.6333 11.8545V47.1554Z" fill="#1492C8"/>
<path d="M3.19531 10.3157V4.41309H47.5918V10.3157H3.19531Z" fill="#1492C8"/>
<path d="M53.4414 47.1545V38.8633H54.6999V46.075H58.522V47.1775H53.4414V47.1545Z" fill="#888888"/>
<path d="M62.344 41.001C64.1851 41.001 65.3038 42.402 65.3038 44.2394V44.515H60.4796C60.5728 45.5256 61.3186 46.3753 62.5538 46.3753C63.2063 46.3753 63.9055 46.1227 64.3483 45.6634L64.8843 46.3983C64.2783 46.9725 63.416 47.294 62.4372 47.294C60.6194 47.294 59.291 46.0308 59.291 44.1245C59.291 42.402 60.5495 41.001 62.344 41.001ZM60.4796 43.7111H64.2084C64.1851 42.9073 63.6491 41.9197 62.344 41.9197C61.1088 41.9197 60.5262 42.8843 60.4796 43.7111Z" fill="#888888"/>
<path d="M66.9592 45.8244V42.1266H65.957V41.139H66.9592V39.4854H68.1011V41.139H69.3363V42.1266H68.1011V45.5717C68.1011 45.9851 68.3109 46.3067 68.6837 46.3067C68.9401 46.3067 69.1965 46.1918 69.313 46.077L69.5927 46.9268C69.3596 47.1565 69.01 47.3172 68.4041 47.3172C67.4486 47.2943 66.9592 46.766 66.9592 45.8244Z" fill="#888888"/>
<path d="M70.4082 41.3448C70.8044 41.0922 71.2006 40.5869 71.2705 40.1735C71.2472 40.1735 71.154 40.2194 71.0841 40.2194C70.6879 40.2194 70.4082 39.9209 70.4082 39.5075C70.4082 39.094 70.7578 38.7266 71.1773 38.7266C71.6434 38.7266 72.0629 39.094 72.0629 39.7601C72.0629 40.5869 71.5968 41.3219 70.9442 41.7583L70.4082 41.3448Z" fill="#888888"/>
<path d="M73.2276 45.549C73.6471 45.9854 74.4627 46.3988 75.2784 46.3988C76.1407 46.3988 76.5835 46.0543 76.5835 45.549C76.5835 44.9519 75.8844 44.7452 75.1153 44.5844C74.0899 44.3547 72.878 44.0791 72.878 42.77C72.878 41.8053 73.717 40.9785 75.2085 40.9785C76.2572 40.9785 77.0263 41.346 77.539 41.8283L77.0263 42.6092C76.6767 42.1958 76.0009 41.8742 75.2318 41.8742C74.4627 41.8742 73.9733 42.1728 73.9733 42.6551C73.9733 43.1834 74.6259 43.3442 75.3949 43.5279C76.467 43.7576 77.7255 44.0561 77.7255 45.4342C77.7255 46.4677 76.8632 47.2716 75.2551 47.2716C74.2297 47.2716 73.3441 46.95 72.7148 46.3299L73.2276 45.549Z" fill="#888888"/>
<path d="M82.3887 47.1545V38.8633H83.6472V47.1545H82.3887Z" fill="#888888"/>
<path d="M89.6328 47.1548V43.3192C89.6328 42.3316 89.1201 42.0101 88.3277 42.0101C87.6286 42.0101 86.976 42.4235 86.6498 42.8828V47.1777H85.5078V41.1603H86.6498V42.0101C87.046 41.5277 87.8616 41.0225 88.8172 41.0225C90.0989 41.0225 90.7748 41.6885 90.7748 42.9747V47.2007H89.6328V47.1548Z" fill="#888888"/>
<path d="M96.6739 47.1548V43.3192C96.6739 42.3316 96.1611 42.0101 95.3688 42.0101C94.6696 42.0101 94.0171 42.4235 93.6908 42.8828V47.1777H92.5488V41.1603H93.6908V42.0101C94.087 41.5277 94.9027 41.0225 95.8582 41.0225C97.14 41.0225 97.8158 41.6885 97.8158 42.9747V47.2007H96.6739V47.1548Z" fill="#888888"/>
<path d="M99.2363 44.1475C99.2363 42.425 100.425 41.001 102.313 41.001C104.224 41.001 105.389 42.425 105.389 44.1475C105.389 45.893 104.224 47.317 102.313 47.317C100.425 47.294 99.2363 45.893 99.2363 44.1475ZM104.224 44.1475C104.224 43.0221 103.548 41.9886 102.336 41.9886C101.124 41.9886 100.448 42.9991 100.448 44.1475C100.448 45.2959 101.124 46.3064 102.336 46.3064C103.548 46.3064 104.224 45.2959 104.224 44.1475Z" fill="#888888"/>
<path d="M108.443 47.1552L105.926 41.1377H107.138L109.049 45.846L110.96 41.1377H112.195L109.678 47.1552H108.443Z" fill="#888888"/>
<path d="M116.877 47.1567V46.4907C116.388 47.0189 115.712 47.2945 114.873 47.2945C113.871 47.2945 112.752 46.6285 112.752 45.2964C112.752 43.9183 113.847 43.3212 114.873 43.3212C115.688 43.3212 116.388 43.5738 116.877 44.125V43.1375C116.877 42.4025 116.248 41.9431 115.385 41.9431C114.686 41.9431 114.104 42.1958 113.544 42.747L113.055 41.9661C113.731 41.3001 114.57 40.9785 115.549 40.9785C116.877 40.9785 117.996 41.5527 117.996 43.0915V47.1567H116.877ZM116.877 44.8141C116.527 44.3777 115.945 44.125 115.316 44.125C114.5 44.125 113.917 44.6074 113.917 45.3194C113.917 46.0313 114.5 46.5137 115.316 46.5137C115.945 46.5137 116.551 46.284 116.877 45.8246V44.8141Z" fill="#888888"/>
<path d="M120.049 45.8244V42.1266H119.047V41.139H120.049V39.4854H121.191V41.139H122.426V42.1266H121.191V45.5717C121.191 45.9851 121.401 46.3067 121.774 46.3067C122.03 46.3067 122.286 46.1918 122.403 46.077L122.683 46.9268C122.449 47.1565 122.1 47.3172 121.494 47.3172C120.538 47.2943 120.049 46.766 120.049 45.8244Z" fill="#888888"/>
<path d="M126.364 41.001C128.205 41.001 129.323 42.402 129.323 44.2394V44.515H124.499C124.592 45.5256 125.338 46.3753 126.573 46.3753C127.226 46.3753 127.925 46.1227 128.368 45.6634L128.904 46.3983C128.298 46.9725 127.436 47.294 126.457 47.294C124.639 47.294 123.311 46.0308 123.311 44.1245C123.311 42.402 124.569 41.001 126.364 41.001ZM124.499 43.7111H128.228C128.205 42.9073 127.669 41.9197 126.364 41.9197C125.128 41.9197 124.546 42.8843 124.499 43.7111Z" fill="#888888"/>
</svg>
