<svg width="270" height="44" viewBox="0 0 270 44" fill="none" xmlns="http://www.w3.org/2000/svg">
<path d="M58.0362 26.6212V5.42231H50.2988V0.553223H71.3901V5.44528H63.6993V26.6212H58.0362Z" fill="black"/>
<path d="M69.7607 17.1592C69.7607 11.6929 73.8858 7.2832 79.6655 7.2832C85.4219 7.2832 89.2672 11.5092 89.2672 17.6415V18.8128H75.0277C75.3773 21.1096 77.2883 23.0388 80.5511 23.0388C82.1824 23.0388 84.3964 22.3728 85.6316 21.2014L87.8922 24.4858C85.9812 26.2083 82.9748 27.1041 79.9917 27.1041C74.1654 27.0811 69.7607 23.2226 69.7607 17.1592ZM79.6888 11.3255C76.5659 11.3255 75.2142 13.4844 75.0044 15.3448H84.443C84.2799 13.5533 83.0214 11.3255 79.6888 11.3255Z" fill="black"/>
<path d="M91.6904 17.1592C91.6904 11.3714 95.9786 7.2832 101.852 7.2832C105.767 7.2832 108.167 8.95982 109.426 10.6824L106.14 13.737C105.231 12.4049 103.832 11.7159 102.085 11.7159C99.0316 11.7159 96.8875 13.8978 96.8875 17.1821C96.8875 20.4665 99.0316 22.6943 102.085 22.6943C103.832 22.6943 105.207 21.9134 106.14 20.6273L109.426 23.6819C108.167 25.4045 105.767 27.127 101.852 27.127C95.9786 27.0811 91.6904 22.9699 91.6904 17.1592Z" fill="black"/>
<path d="M125.69 26.6212V15.1375C125.69 12.5192 124.292 11.6924 122.171 11.6924C120.19 11.6924 118.652 12.7948 117.813 13.8743V26.6212H112.732V0.553223H117.813V10.1766C119.048 8.77555 121.379 7.28267 124.525 7.28267C128.72 7.28267 130.747 9.55644 130.747 13.2312V26.6212H125.69Z" fill="black"/>
<path d="M148.646 26.6217V15.207C148.646 12.5887 147.248 11.6929 145.127 11.6929C143.146 11.6929 141.632 12.7954 140.769 13.8748V26.6217H135.735V7.74255H140.769V10.1771C142.004 8.77608 144.382 7.2832 147.481 7.2832C151.723 7.2832 153.75 9.62588 153.75 13.3007V26.6217H148.646Z" fill="black"/>
<path d="M157.459 17.1592C157.459 11.8078 161.258 7.2832 167.573 7.2832C173.912 7.2832 177.735 11.8078 177.735 17.1592C177.735 22.5106 173.936 27.0811 167.573 27.0811C161.258 27.0811 157.459 22.5106 157.459 17.1592ZM172.468 17.1592C172.468 14.2194 170.72 11.6929 167.55 11.6929C164.427 11.6929 162.679 14.2423 162.679 17.1592C162.679 20.122 164.427 22.6714 167.55 22.6714C170.743 22.6714 172.468 20.122 172.468 17.1592Z" fill="black"/>
<path d="M204.604 26.6212V7.81092L197.146 26.5982H194.676L187.218 7.81092V26.6212H181.578V0.553223H189.479L195.911 16.8601L202.343 0.553223H210.267V26.6212H204.604Z" fill="black"/>
<path d="M226.88 26.6217V24.6236C225.575 26.1854 223.314 27.0811 220.821 27.0811C217.768 27.0811 214.202 25.06 214.202 20.834C214.202 16.3783 217.768 14.7476 220.821 14.7476C223.408 14.7476 225.622 15.5744 226.88 17.0443V14.6557C226.88 12.7494 225.226 11.4862 222.685 11.4862C220.658 11.4862 218.77 12.2671 217.162 13.7141L215.181 10.246C217.511 8.17893 220.541 7.2832 223.548 7.2832C227.952 7.2832 231.961 9.00576 231.961 14.4261V26.6217H226.88ZM226.88 22.0742V19.7315C226.041 18.6291 224.456 18.0549 222.825 18.0549C220.844 18.0549 219.213 19.1114 219.213 20.9029C219.213 22.6943 220.844 23.7279 222.825 23.7279C224.456 23.7279 226.041 23.1766 226.88 22.0742Z" fill="black"/>
<path d="M236.93 26.6217V7.74255H241.964V10.2919C243.362 8.66125 245.692 7.2832 248.07 7.2832V12.1293C247.72 12.0604 247.277 12.0145 246.671 12.0145C245.017 12.0145 242.779 12.9561 241.964 14.1734V26.6217H236.93Z" fill="black"/>
<path d="M263.61 26.6212L258.53 19.3635L256.222 21.7981V26.6212H251.188V0.553223H256.222V16.1481L263.47 7.74201H269.646L262.095 16.2859L269.903 26.5982H263.61V26.6212Z" fill="black"/>
<path d="M6.90377 43.2946H0.0986328V30.4787L6.90377 26.4824V43.2946Z" fill="#1492C8"/>
<path d="M18.7192 43.2947H11.9141V22.5322L18.7192 18.5359V43.2947Z" fill="#1492C8"/>
<path d="M30.5356 43.2955H23.7305V11.991L30.5356 7.99463V43.2955Z" fill="#1492C8"/>
<path d="M0.0986328 6.45584V0.553223H44.4951V6.45584H0.0986328Z" fill="#1492C8"/>
<path d="M50.3457 43.2946V35.0034H51.6042V42.2152H55.4262V43.3176H50.3457V43.2946Z" fill="black"/>
<path d="M59.2483 37.1406C61.0894 37.1406 62.2081 38.5416 62.2081 40.379V40.6546H57.3839C57.4771 41.6652 58.2229 42.515 59.458 42.515C60.1106 42.515 60.8098 42.2624 61.2526 41.803L61.7886 42.538C61.1826 43.1121 60.3203 43.4337 59.3415 43.4337C57.5237 43.4337 56.1953 42.1705 56.1953 40.2642C56.1953 38.5416 57.4538 37.1406 59.2483 37.1406ZM57.3839 39.8508H61.1127C61.0894 39.0469 60.5534 38.0593 59.2483 38.0593C58.0131 38.0593 57.4305 39.024 57.3839 39.8508Z" fill="black"/>
<path d="M63.8625 41.9647V38.267H62.8604V37.2794H63.8625V35.6257H65.0044V37.2794H66.2396V38.267H65.0044V41.7121C65.0044 42.1255 65.2142 42.447 65.5871 42.447C65.8434 42.447 66.0998 42.3322 66.2163 42.2174L66.496 43.0672C66.2629 43.2968 65.9133 43.4576 65.3074 43.4576C64.3519 43.4346 63.8625 42.9064 63.8625 41.9647Z" fill="black"/>
<path d="M67.3115 37.485C67.7077 37.2323 68.1039 36.7271 68.1738 36.3136C68.1505 36.3136 68.0573 36.3596 67.9874 36.3596C67.5912 36.3596 67.3115 36.061 67.3115 35.6476C67.3115 35.2342 67.6611 34.8667 68.0806 34.8667C68.5467 34.8667 68.9662 35.2342 68.9662 35.9002C68.9662 36.7271 68.5001 37.462 67.8475 37.8984L67.3115 37.485Z" fill="black"/>
<path d="M70.1328 41.6889C70.5523 42.1253 71.368 42.5387 72.1837 42.5387C73.046 42.5387 73.4888 42.1942 73.4888 41.6889C73.4888 41.0918 72.7896 40.8851 72.0206 40.7243C70.9951 40.4946 69.7833 40.219 69.7833 38.9099C69.7833 37.9452 70.6222 37.1184 72.1138 37.1184C73.1625 37.1184 73.9316 37.4859 74.4443 37.9682L73.9316 38.7491C73.582 38.3357 72.9062 38.0141 72.1371 38.0141C71.368 38.0141 70.8786 38.3127 70.8786 38.795C70.8786 39.3233 71.5311 39.4841 72.3002 39.6678C73.3723 39.8975 74.6307 40.196 74.6307 41.5741C74.6307 42.6076 73.7684 43.4115 72.1604 43.4115C71.135 43.4115 70.2494 43.0899 69.6201 42.4698L70.1328 41.6889Z" fill="black"/>
<path d="M79.292 43.2946V35.0034H80.5505V43.2946H79.292Z" fill="black"/>
<path d="M86.5362 43.2954V39.4598C86.5362 38.4722 86.0234 38.1507 85.2311 38.1507C84.5319 38.1507 83.8794 38.5641 83.5531 39.0234V43.3183H82.4111V37.3009H83.5531V38.1507C83.9493 37.6684 84.765 37.1631 85.7205 37.1631C87.0023 37.1631 87.6781 37.8291 87.6781 39.1153V43.3413H86.5362V43.2954Z" fill="black"/>
<path d="M93.5772 43.2954V39.4598C93.5772 38.4722 93.0645 38.1507 92.2721 38.1507C91.5729 38.1507 90.9204 38.5641 90.5941 39.0234V43.3183H89.4521V37.3009H90.5941V38.1507C90.9903 37.6684 91.806 37.1631 92.7615 37.1631C94.0433 37.1631 94.7191 37.8291 94.7191 39.1153V43.3413H93.5772V43.2954Z" fill="black"/>
<path d="M96.1416 40.2872C96.1416 38.5646 97.3302 37.1406 99.2179 37.1406C101.129 37.1406 102.294 38.5646 102.294 40.2872C102.294 42.0327 101.129 43.4567 99.2179 43.4567C97.3302 43.4337 96.1416 42.0327 96.1416 40.2872ZM101.129 40.2872C101.129 39.1618 100.453 38.1282 99.2412 38.1282C98.0293 38.1282 97.3535 39.1388 97.3535 40.2872C97.3535 41.4355 98.0293 42.4461 99.2412 42.4461C100.453 42.4461 101.129 41.4355 101.129 40.2872Z" fill="black"/>
<path d="M105.347 43.2948L102.83 37.2773H104.042L105.953 41.9857L107.864 37.2773H109.099L106.582 43.2948H105.347Z" fill="black"/>
<path d="M113.78 43.2966V42.6306C113.291 43.1588 112.615 43.4344 111.776 43.4344C110.774 43.4344 109.655 42.7684 109.655 41.4363C109.655 40.0582 110.751 39.4611 111.776 39.4611C112.592 39.4611 113.291 39.7137 113.78 40.2649V39.2773C113.78 38.5424 113.151 38.083 112.289 38.083C111.59 38.083 111.007 38.3357 110.448 38.8869L109.958 38.106C110.634 37.44 111.473 37.1184 112.452 37.1184C113.78 37.1184 114.899 37.6926 114.899 39.2314V43.2966H113.78ZM113.78 40.954C113.431 40.5176 112.848 40.2649 112.219 40.2649C111.403 40.2649 110.821 40.7473 110.821 41.4592C110.821 42.1712 111.403 42.6535 112.219 42.6535C112.848 42.6535 113.454 42.4239 113.78 41.9645V40.954Z" fill="black"/>
<path d="M116.952 41.9647V38.267H115.95V37.2794H116.952V35.6257H118.094V37.2794H119.329V38.267H118.094V41.7121C118.094 42.1255 118.304 42.447 118.677 42.447C118.933 42.447 119.19 42.3322 119.306 42.2174L119.586 43.0672C119.353 43.2968 119.003 43.4576 118.397 43.4576C117.442 43.4346 116.952 42.9064 116.952 41.9647Z" fill="black"/>
<path d="M123.267 37.1406C125.108 37.1406 126.227 38.5416 126.227 40.379V40.6546H121.402C121.496 41.6652 122.241 42.515 123.477 42.515C124.129 42.515 124.828 42.2624 125.271 41.803L125.807 42.538C125.201 43.1121 124.339 43.4337 123.36 43.4337C121.542 43.4337 120.214 42.1705 120.214 40.2642C120.214 38.5416 121.472 37.1406 123.267 37.1406ZM121.402 39.8508H125.131C125.108 39.0469 124.572 38.0593 123.267 38.0593C122.032 38.0593 121.449 39.024 121.402 39.8508Z" fill="black"/>
</svg>
