<svg width="277" height="51" viewBox="0 0 277 51" fill="none" xmlns="http://www.w3.org/2000/svg">
<path d="M61.1319 30.4801V9.2812H53.3945V4.41211H74.4858V9.30416H66.795V30.4801H61.1319Z" fill="white"/>
<path d="M72.8555 21.0186C72.8555 15.5523 76.9805 11.1426 82.7602 11.1426C88.5166 11.1426 92.362 15.3686 92.362 21.5009V22.6722H78.1225C78.472 24.9689 80.3831 26.8982 83.6458 26.8982C85.2772 26.8982 87.4912 26.2322 88.7263 25.0608L90.9869 28.3451C89.0759 30.0677 86.0695 30.9634 83.0865 30.9634C77.2602 30.9405 72.8555 27.0819 72.8555 21.0186ZM82.7835 15.1848C79.6606 15.1848 78.3089 17.3438 78.0991 19.2041H87.5378C87.3746 17.4127 86.1162 15.1848 82.7835 15.1848Z" fill="white"/>
<path d="M94.7852 21.0186C94.7852 15.2308 99.0733 11.1426 104.946 11.1426C108.862 11.1426 111.262 12.8192 112.52 14.5418L109.234 17.5964C108.326 16.2643 106.927 15.5753 105.179 15.5753C102.126 15.5753 99.9822 17.7572 99.9822 21.0415C99.9822 24.3259 102.126 26.5537 105.179 26.5537C106.927 26.5537 108.302 25.7728 109.234 24.4866L112.52 27.5413C111.262 29.2638 108.862 30.9864 104.946 30.9864C99.0733 30.9405 94.7852 26.8293 94.7852 21.0186Z" fill="white"/>
<path d="M128.786 30.4801V18.9964C128.786 16.3781 127.388 15.5513 125.267 15.5513C123.286 15.5513 121.748 16.6537 120.909 17.7332V30.4801H115.828V4.41211H120.909V14.0354C122.144 12.6344 124.474 11.1416 127.621 11.1416C131.816 11.1416 133.843 13.4153 133.843 17.0901V30.4801H128.786Z" fill="white"/>
<path d="M151.743 30.4811V19.0663C151.743 16.448 150.345 15.5523 148.224 15.5523C146.243 15.5523 144.728 16.6548 143.866 17.7342V30.4811H138.832V11.6019H143.866V14.0365C145.101 12.6355 147.478 11.1426 150.578 11.1426C154.819 11.1426 156.847 13.4853 156.847 17.16V30.4811H151.743Z" fill="white"/>
<path d="M160.555 21.0186C160.555 15.6672 164.353 11.1426 170.669 11.1426C177.008 11.1426 180.83 15.6672 180.83 21.0186C180.83 26.37 177.031 30.9405 170.669 30.9405C164.353 30.9405 160.555 26.37 160.555 21.0186ZM175.563 21.0186C175.563 18.0787 173.815 15.5523 170.646 15.5523C167.523 15.5523 165.775 18.1017 165.775 21.0186C165.775 23.9813 167.523 26.5307 170.646 26.5307C173.839 26.5307 175.563 23.9813 175.563 21.0186Z" fill="white"/>
<path d="M207.701 30.4801V11.6698L200.244 30.4571H197.773L190.316 11.6698V30.4801H184.676V4.41211H192.576L199.009 20.719L205.441 4.41211H213.365V30.4801H207.701Z" fill="white"/>
<path d="M229.975 30.4811V28.483C228.67 30.0447 226.409 30.9405 223.916 30.9405C220.863 30.9405 217.297 28.9193 217.297 24.6933C217.297 20.2377 220.863 18.607 223.916 18.607C226.502 18.607 228.716 19.4338 229.975 20.9037V18.5151C229.975 16.6088 228.32 15.3456 225.78 15.3456C223.752 15.3456 221.865 16.1265 220.257 17.5734L218.276 14.1054C220.606 12.0383 223.636 11.1426 226.642 11.1426C231.047 11.1426 235.055 12.8651 235.055 18.2854V30.4811H229.975ZM229.975 25.9336V23.5909C229.136 22.4885 227.551 21.9143 225.92 21.9143C223.939 21.9143 222.308 22.9708 222.308 24.7622C222.308 26.5537 223.939 27.5872 225.92 27.5872C227.551 27.5872 229.136 27.036 229.975 25.9336Z" fill="white"/>
<path d="M240.023 30.4811V11.6019H245.057V14.1513C246.456 12.5206 248.786 11.1426 251.163 11.1426V15.9887C250.814 15.9198 250.371 15.8739 249.765 15.8739C248.11 15.8739 245.873 16.8155 245.057 18.0328V30.4811H240.023Z" fill="white"/>
<path d="M266.707 30.4801L261.626 23.2224L259.319 25.6569V30.4801H254.285V4.41211H259.319V20.007L266.567 11.6009H272.743L265.192 20.1448L272.999 30.4571H266.707V30.4801Z" fill="white"/>
<path d="M10.0004 47.1539H3.19531V34.3381L10.0004 30.3418V47.1539Z" fill="#1492C8"/>
<path d="M21.8169 47.1534H15.0117V26.3909L21.8169 22.3945V47.1534Z" fill="#1492C8"/>
<path d="M33.6333 47.1544H26.8281V15.8498L33.6333 11.8535V47.1544Z" fill="#1492C8"/>
<path d="M3.19531 10.3147V4.41211H47.5918V10.3147H3.19531Z" fill="#1492C8"/>
<path d="M53.4414 47.1545V38.8633H54.6999V46.075H58.522V47.1775H53.4414V47.1545Z" fill="white"/>
<path d="M62.3421 41C64.1832 41 65.3018 42.401 65.3018 44.2384V44.514H60.4776C60.5709 45.5246 61.3166 46.3744 62.5518 46.3744C63.2043 46.3744 63.9035 46.1217 64.3463 45.6624L64.8823 46.3973C64.2764 46.9715 63.4141 47.2931 62.4353 47.2931C60.6175 47.2931 59.2891 46.0299 59.2891 44.1236C59.2891 42.401 60.5475 41 62.3421 41ZM60.4776 43.7102H64.2065C64.1832 42.9063 63.6471 41.9187 62.3421 41.9187C61.1069 41.9187 60.5242 42.8833 60.4776 43.7102Z" fill="white"/>
<path d="M66.9592 45.8253V42.1276H65.957V41.14H66.9592V39.4863H68.1011V41.14H69.3363V42.1276H68.1011V45.5727C68.1011 45.9861 68.3109 46.3076 68.6837 46.3076C68.9401 46.3076 69.1965 46.1928 69.313 46.078L69.5927 46.9278C69.3596 47.1574 69.01 47.3182 68.4041 47.3182C67.4486 47.2952 66.9592 46.767 66.9592 45.8253Z" fill="white"/>
<path d="M70.4062 41.3448C70.8024 41.0922 71.1986 40.5869 71.2685 40.1735C71.2452 40.1735 71.152 40.2194 71.0821 40.2194C70.6859 40.2194 70.4062 39.9209 70.4062 39.5075C70.4062 39.094 70.7558 38.7266 71.1753 38.7266C71.6414 38.7266 72.0609 39.094 72.0609 39.7601C72.0609 40.5869 71.5948 41.3219 70.9423 41.7583L70.4062 41.3448Z" fill="white"/>
<path d="M73.2276 45.549C73.6471 45.9854 74.4627 46.3988 75.2784 46.3988C76.1407 46.3988 76.5835 46.0543 76.5835 45.549C76.5835 44.9519 75.8844 44.7452 75.1153 44.5844C74.0899 44.3547 72.878 44.0791 72.878 42.77C72.878 41.8053 73.717 40.9785 75.2085 40.9785C76.2572 40.9785 77.0263 41.346 77.539 41.8283L77.0263 42.6092C76.6767 42.1958 76.0009 41.8742 75.2318 41.8742C74.4627 41.8742 73.9733 42.1728 73.9733 42.6551C73.9733 43.1834 74.6259 43.3442 75.3949 43.5279C76.467 43.7576 77.7255 44.0561 77.7255 45.4342C77.7255 46.4677 76.8632 47.2716 75.2551 47.2716C74.2297 47.2716 73.3441 46.95 72.7148 46.3299L73.2276 45.549Z" fill="white"/>
<path d="M82.3867 47.1545V38.8633H83.6452V47.1545H82.3867Z" fill="white"/>
<path d="M89.6328 47.1557V43.3202C89.6328 42.3326 89.1201 42.011 88.3277 42.011C87.6286 42.011 86.976 42.4244 86.6498 42.8838V47.1787H85.5078V41.1612H86.6498V42.011C87.046 41.5287 87.8616 41.0234 88.8172 41.0234C90.0989 41.0234 90.7748 41.6895 90.7748 42.9757V47.2017H89.6328V47.1557Z" fill="white"/>
<path d="M96.6719 47.1557V43.3202C96.6719 42.3326 96.1592 42.011 95.3668 42.011C94.6677 42.011 94.0151 42.4244 93.6888 42.8838V47.1787H92.5469V41.1612H93.6888V42.011C94.085 41.5287 94.9007 41.0234 95.8562 41.0234C97.138 41.0234 97.8139 41.6895 97.8139 42.9757V47.2017H96.6719V47.1557Z" fill="white"/>
<path d="M99.2383 44.1465C99.2383 42.424 100.427 41 102.315 41C104.226 41 105.391 42.424 105.391 44.1465C105.391 45.8921 104.226 47.316 102.315 47.316C100.427 47.2931 99.2383 45.8921 99.2383 44.1465ZM104.226 44.1465C104.226 43.0211 103.55 41.9876 102.338 41.9876C101.126 41.9876 100.45 42.9982 100.45 44.1465C100.45 45.2949 101.126 46.3055 102.338 46.3055C103.55 46.3055 104.226 45.2949 104.226 44.1465Z" fill="white"/>
<path d="M108.443 47.1542L105.926 41.1367H107.138L109.049 45.845L110.96 41.1367H112.195L109.678 47.1542H108.443Z" fill="white"/>
<path d="M116.875 47.1567V46.4907C116.386 47.0189 115.71 47.2945 114.871 47.2945C113.869 47.2945 112.75 46.6285 112.75 45.2964C112.75 43.9183 113.845 43.3212 114.871 43.3212C115.686 43.3212 116.386 43.5738 116.875 44.125V43.1375C116.875 42.4025 116.246 41.9431 115.383 41.9431C114.684 41.9431 114.102 42.1958 113.542 42.747L113.053 41.9661C113.729 41.3001 114.568 40.9785 115.547 40.9785C116.875 40.9785 117.994 41.5527 117.994 43.0915V47.1567H116.875ZM116.875 44.8141C116.525 44.3777 115.943 44.125 115.314 44.125C114.498 44.125 113.915 44.6074 113.915 45.3194C113.915 46.0313 114.498 46.5137 115.314 46.5137C115.943 46.5137 116.549 46.284 116.875 45.8246V44.8141Z" fill="white"/>
<path d="M120.049 45.8253V42.1276H119.047V41.14H120.049V39.4863H121.191V41.14H122.426V42.1276H121.191V45.5727C121.191 45.9861 121.401 46.3076 121.774 46.3076C122.03 46.3076 122.286 46.1928 122.403 46.078L122.683 46.9278C122.449 47.1574 122.1 47.3182 121.494 47.3182C120.538 47.2952 120.049 46.767 120.049 45.8253Z" fill="white"/>
<path d="M126.362 41C128.203 41 129.321 42.401 129.321 44.2384V44.514H124.497C124.59 45.5246 125.336 46.3744 126.571 46.3744C127.224 46.3744 127.923 46.1217 128.366 45.6624L128.902 46.3973C128.296 46.9715 127.434 47.2931 126.455 47.2931C124.637 47.2931 123.309 46.0299 123.309 44.1236C123.309 42.401 124.567 41 126.362 41ZM124.497 43.7102H128.226C128.203 42.9063 127.667 41.9187 126.362 41.9187C125.126 41.9187 124.544 42.8833 124.497 43.7102Z" fill="white"/>
</svg>
