<svg width="27" height="27" viewBox="0 0 27 27" fill="none" xmlns="http://www.w3.org/2000/svg">
<path d="M4.82017 19.4162L4.91899 19.1776L4.78164 18.9589C3.78602 17.3738 3.20312 15.5054 3.20312 13.4979C3.20312 7.80979 7.81489 3.19922 13.5031 3.19922C19.1906 3.19922 23.8031 7.80982 23.8031 13.4979C23.8031 19.1861 19.1904 23.7998 13.5031 23.7998C11.4959 23.7998 9.62939 23.2154 8.04414 22.2204L7.82544 22.0831L7.5869 22.1819L3.75719 23.769C3.66158 23.8084 3.55323 23.8115 3.45057 23.7694C3.24549 23.6835 3.14982 23.4495 3.23365 23.2467C3.23367 23.2466 3.23369 23.2466 3.23372 23.2465L4.82017 19.4162ZM8.46844 21.5435L8.46853 21.5436C9.9851 22.4944 11.7264 22.9997 13.5031 22.9997C18.7417 22.9997 23.003 18.7362 23.003 13.4979C23.003 8.2596 18.7415 3.99904 13.5031 3.99904C8.26471 3.99904 4.00321 8.25988 4.00321 13.4979C4.00321 15.2747 4.50613 17.016 5.45959 18.533L5.81609 19.1015L4.80401 21.5456L4.34218 22.6609L5.45736 22.1988L7.89975 21.1869L8.46844 21.5435Z" fill="#4EAA97" stroke="white"/>
<path d="M16.9658 16.9643L16.9649 16.9651C16.4593 17.4719 15.6354 17.473 15.126 16.9647L15.1259 16.9645L15.1258 16.9644L15.1252 16.9638L15.1224 16.9611L15.1115 16.9501L15.0689 16.9076L14.9074 16.746L14.3308 16.1693L12.5813 14.4195L10.8901 12.7277H10.8907L10.0371 11.8741C9.5293 11.3663 9.5293 10.5438 10.0371 10.0359L10.0372 10.0359L10.8563 9.21657L12.2348 11.5138L11.5564 12.1922L11.2029 12.5457L11.5564 12.8992L14.1008 15.4448L14.4544 15.7985L14.808 15.4449L15.4864 14.7665L17.7859 16.1462L16.9658 16.9643ZM10.0398 11.8769C10.0398 11.8768 10.0398 11.8768 10.0399 11.8769L10.0398 11.8769ZM9.456 11.95C8.99112 11.2509 9.06697 10.299 9.68356 9.6824L10.5911 8.77463L9.456 11.95Z" fill="white" stroke="white"/>
</svg>
