<svg width="99" height="116" viewBox="0 0 99 116" fill="none" xmlns="http://www.w3.org/2000/svg">
<path d="M7.21747 37.52C3.23159 37.5181 0.000983441 40.73 0 44.6803L0.00491731 74.6595C0.00590076 78.6235 3.23847 81.8227 7.22534 81.8217C11.2142 81.8217 14.4458 78.6225 14.4418 74.6605V44.6764C14.4399 40.7271 11.2053 37.5181 7.21747 37.52ZM65.4293 10.5976L70.4674 1.47294C70.7359 0.995984 70.5599 0.389298 70.0731 0.119118C69.5814 -0.139357 68.9746 0.0362113 68.714 0.516098L63.6247 9.73636C59.3428 7.84607 54.5505 6.78681 49.4798 6.79169C44.423 6.78681 39.6327 7.84314 35.3685 9.7227L30.2732 0.525852C30.0087 0.0410884 29.399 -0.13448 28.9181 0.129848C28.4283 0.392225 28.2483 0.999886 28.5208 1.47587L33.5609 10.5947C23.6576 15.6598 16.9663 25.3063 16.9722 36.3818L81.9953 36.374C81.9983 25.3024 75.3188 15.6754 65.4293 10.5976ZM34.6909 24.6987C33.195 24.6957 31.9736 23.4882 31.9736 21.9959C31.9736 20.5104 33.1911 19.2892 34.6938 19.2902C36.2014 19.2892 37.4209 20.5104 37.4229 21.9959C37.4238 23.4863 36.2014 24.6977 34.6909 24.6987ZM64.2993 24.6928C62.7966 24.6948 61.5732 23.4863 61.5732 21.99C61.5791 20.5075 62.7946 19.2863 64.3003 19.2804C65.7961 19.2853 67.0225 20.5075 67.0215 21.991C67.0234 23.4843 65.801 24.6938 64.2993 24.6928ZM17.2377 38.8729L17.2486 85.3351C17.2456 89.5614 20.6926 92.9733 24.9509 92.9733L30.1956 92.9752L30.2015 108.839C30.2005 112.789 33.438 116 37.415 116C41.4038 116 44.6354 112.786 44.6364 108.834L44.6325 92.9742L54.3774 92.9713L54.3813 108.834C54.3813 112.781 57.6198 115.999 61.5978 115.991C65.5866 115.994 68.8202 112.78 68.8192 108.828L68.8143 92.9693L74.0777 92.9654C78.3261 92.9674 81.7819 89.5516 81.7839 85.3243L81.775 38.8621L17.2377 38.8729ZM98.9951 44.6696C98.9941 40.7144 95.7635 37.5093 91.7757 37.5112C87.7898 37.5073 84.5601 40.7173 84.5601 44.6725L84.566 74.6537C84.5651 78.6118 87.7947 81.811 91.7835 81.812C95.7704 81.811 98.999 78.6118 99 74.6498L98.9951 44.6696Z" fill="#A4C439"/>
</svg>
