<svg width="77" height="81" viewBox="0 0 77 81" fill="none" xmlns="http://www.w3.org/2000/svg">
<path d="M38.3634 0L0 13.351L6.06249 63.0587L38.4037 80.6377L70.9117 62.8204L76.9724 13.1146L38.3634 0Z" fill="#BDBDBD"/>
<path d="M72.9736 15.6246L38.4863 3.91016V76.4108L67.5012 60.5068L72.9736 15.6246Z" fill="#B71C1C"/>
<path d="M38.381 3.87695L4 15.8425L9.4742 60.7412L38.3993 76.4619L38.4891 76.4142V3.91361L38.381 3.87695Z" fill="#DD2C00"/>
<path d="M38.4863 7.32227V24.7473L54.207 58.6445H62.2873L38.4863 7.32227Z" fill="#BDBDBD"/>
<path d="M14.6895 58.6445H22.7697L38.4904 24.7473V7.32227L14.6895 58.6445Z" fill="#EEEEEE"/>
<path d="M38.4863 40.3184H49.4824V47.6491H38.4863V40.3184Z" fill="#BDBDBD"/>
<path d="M27.4902 40.3184H38.4863V47.6491H27.4902V40.3184Z" fill="#EEEEEE"/>
</svg>
