<svg width="109" height="44" viewBox="0 0 109 44" fill="none" xmlns="http://www.w3.org/2000/svg">
<path d="M37.8579 8.86535C41.7858 20.878 43.274 42.3076 54.7612 42.3076C55.6356 42.3076 56.5194 42.2219 57.4062 42.053C46.964 39.6184 45.7261 18.422 39.3546 7.44531C38.8464 7.90887 38.3476 8.38231 37.8579 8.86535Z" fill="url(#paint0_linear_2505_47092)"/>
<path d="M39.3555 7.45131C45.7274 18.428 46.9649 39.6244 57.4071 42.059C58.2275 41.9086 59.0496 41.6806 59.8734 41.393C50.5006 36.8011 47.91 16.2176 40.6735 6.30859C40.2268 6.68111 39.7874 7.06223 39.3555 7.45174" fill="url(#paint1_linear_2505_47092)"/>
<path d="M48.5349 0.918021C47.6623 0.918021 46.7767 1.00375 45.8882 1.17263C43.5637 1.61068 41.2024 2.61152 38.8223 4.12586C39.4725 4.76752 40.091 5.50175 40.6731 6.30328C43.094 4.29431 45.499 2.80998 47.8954 1.91758C48.77 1.59034 49.6714 1.33979 50.5893 1.16877C49.9177 0.999798 49.2275 0.915561 48.5349 0.918021Z" fill="#14559A"/>
<path d="M67.1921 37.1525C68.1906 36.3548 69.1523 35.5119 70.0742 34.6266C66.0828 22.6697 64.6542 0.933594 53.0864 0.933594C52.2592 0.933594 51.4246 1.01075 50.5918 1.16505C61.1287 3.78567 62.4785 26.7103 67.1925 37.1525" fill="url(#paint2_linear_2505_47092)"/>
<path d="M50.5896 1.16834C49.9179 0.999596 49.2277 0.915504 48.5352 0.918024L53.0842 0.93474C52.2569 0.93474 51.4224 1.01232 50.5896 1.16834Z" fill="#3092C4"/>
<path d="M66.9882 39.6984C66.536 39.2672 66.1066 38.794 65.6839 38.2891C63.738 39.6667 61.7997 40.7117 59.873 41.3915C60.5607 41.7292 61.2889 41.9773 62.0398 42.1296C62.6472 42.2526 63.2656 42.3137 63.8854 42.3122C66.047 42.3122 67.7559 42.0563 69.2111 41.3585C68.4096 40.9255 67.6753 40.364 66.9882 39.6984Z" fill="#1969BC"/>
<path d="M47.8965 1.91978C57.334 6.85584 58.1544 29.2096 65.6849 38.2862C66.1974 37.9241 66.6991 37.547 67.1894 37.1554C62.4754 26.7132 61.1273 3.78688 50.5925 1.16797C49.674 1.34087 48.772 1.5924 47.8965 1.91978Z" fill="url(#paint3_linear_2505_47092)"/>
<path d="M40.6699 6.30629C47.906 16.2153 50.497 36.7984 59.8698 41.3907C61.7965 40.7109 63.7352 39.6659 65.6807 38.2883C58.1502 29.2117 57.3298 6.85794 47.8923 1.92188C45.4963 2.81256 43.0908 4.29689 40.6699 6.30587" fill="url(#paint4_linear_2505_47092)"/>
<path d="M33.2286 8.57281C32.0945 11.1373 30.9359 14.508 29.5352 18.9079C32.3208 14.9834 35.0974 11.6015 37.8587 8.86257C37.4785 7.69327 37.07 6.61528 36.6298 5.6543C35.4444 6.56528 34.3092 7.53968 33.2291 8.57324" fill="url(#paint5_linear_2505_47092)"/>
<path d="M37.6336 4.92383C37.2947 5.165 36.9598 5.41164 36.6289 5.66364C37.0691 6.62419 37.4754 7.70218 37.8561 8.87148C38.3466 8.38933 38.8456 7.91591 39.3528 7.45144C38.8183 6.53289 38.2504 5.68464 37.6336 4.92383Z" fill="#2B74B1"/>
<path d="M38.8229 4.12738C38.4211 4.38273 38.025 4.64683 37.6348 4.91948C38.252 5.6803 38.8195 6.52855 39.3561 7.44881C39.7871 7.05782 40.2266 6.67625 40.6742 6.30438C40.0925 5.50327 39.474 4.76861 38.8233 4.12695" fill="#125A9E"/>
<path d="M103.195 0.00471489C97.8577 20.5895 86.7091 37.1229 77.362 41.2913H77.3449C77.1747 41.3685 77.0063 41.4387 76.84 41.5069C76.8168 41.521 76.7958 41.5228 76.7782 41.5309C76.7294 41.5506 76.684 41.5661 76.6347 41.5858C76.6115 41.5995 76.5909 41.6042 76.5699 41.6123C76.4911 41.6406 76.4139 41.6642 76.3368 41.6951C76.3033 41.7092 76.272 41.7178 76.2403 41.7289C76.2024 41.7435 76.1638 41.7561 76.1246 41.7666C76.0894 41.7804 76.0526 41.7907 76.0123 41.8061C75.9789 41.8198 75.9437 41.8258 75.9124 41.8395C75.8438 41.8592 75.7813 41.8759 75.7127 41.8995C75.6844 41.8995 75.6582 41.915 75.6287 41.9227C75.5862 41.9364 75.5387 41.9462 75.4932 41.9591C75.4619 41.9728 75.4358 41.9775 75.4024 41.9844C75.3552 41.9981 75.3025 42.011 75.2549 42.0221L75.0762 42.0615C75.5043 42.2194 75.9572 42.2989 76.4135 42.2964C85.2766 42.2964 94.2126 26.4132 108.999 0H103.193L103.195 0.00471489Z" fill="url(#paint6_linear_2505_47092)"/>
<path d="M27.6095 1.75607C27.6151 1.75607 27.6224 1.74236 27.6254 1.74236C27.6327 1.74236 27.6434 1.74236 27.6468 1.72864H27.658C27.7068 1.7115 27.7523 1.69221 27.8016 1.67378C27.8144 1.67378 27.8209 1.67378 27.8299 1.66006C27.8423 1.66006 27.8543 1.64592 27.8667 1.6442C27.919 1.62749 27.9717 1.60777 28.021 1.58977H28.0292C28.1466 1.55462 28.2555 1.5109 28.3691 1.47018C28.3854 1.47018 28.4008 1.45646 28.4201 1.45646C28.4672 1.44103 28.5165 1.42432 28.5658 1.41317C28.5885 1.39903 28.6112 1.39903 28.6322 1.39174C28.6828 1.37674 28.7321 1.3596 28.7793 1.34845C28.8007 1.34845 28.8196 1.33431 28.8354 1.33302C28.9983 1.28801 29.1599 1.24601 29.3228 1.207C29.3455 1.207 29.3648 1.19286 29.3892 1.19157C29.4363 1.17786 29.4805 1.17014 29.5315 1.16328C29.5525 1.14957 29.5769 1.14957 29.6014 1.14228C29.6485 1.12857 29.6944 1.12685 29.7454 1.11571H29.7784C29.877 1.09556 29.9768 1.07927 30.075 1.06084H30.1346C30.1817 1.04713 30.2237 1.04541 30.2713 1.03684C30.297 1.03684 30.3236 1.02312 30.3485 1.02312C30.3922 1.02312 30.4359 1.00898 30.4796 1.00341C30.5028 1.00341 30.5251 1.00341 30.5516 0.989262C30.6549 0.975546 30.7617 0.969974 30.8705 0.961401C30.5572 0.9299 30.2425 0.91345 29.9276 0.912109C19.9466 0.912109 6.19451 19.4318 0 43.4151H1.19372C3.17612 39.8798 4.95706 36.5353 6.58585 33.3956C10.924 16.4078 19.7605 4.8229 27.61 1.7535" fill="url(#paint7_linear_2505_47092)"/>
<path d="M33.2246 8.57999C34.3046 7.54642 35.4397 6.57201 36.6249 5.66105C36.3839 5.12484 36.1136 4.60227 35.8152 4.0957C34.9023 5.2037 34.0677 6.66575 33.2246 8.57999Z" fill="#0D82CA"/>
<path d="M34.0483 1.89871C34.6998 2.44563 35.2841 3.19745 35.8185 4.09885C35.987 3.89182 36.1572 3.70065 36.3338 3.52192C35.5922 2.82968 34.7916 2.26175 33.9219 1.83398C33.957 1.85327 33.9922 1.86913 34.0286 1.88456C34.0286 1.88456 34.0423 1.89871 34.0483 1.89871Z" fill="#0D82CA"/>
<path d="M6.58398 33.3905C15.6854 15.8524 19.9974 4.75272 27.6085 1.74805C19.7608 4.81958 10.9225 16.4045 6.58441 33.3905" fill="url(#paint8_linear_2505_47092)"/>
<path d="M36.3316 3.52148C36.1546 3.70194 35.9866 3.89139 35.8164 4.09842C36.1149 4.60502 36.3858 5.12743 36.6278 5.66333C36.9587 5.41148 37.2936 5.16498 37.6325 4.92395C37.2322 4.42665 36.7975 3.95801 36.3316 3.52148Z" fill="#127BCA"/>
<path d="M10.7178 43.3347C10.6617 43.3489 10.6055 43.3489 10.5528 43.3544H10.5215C10.4739 43.3544 10.4246 43.3686 10.3809 43.3686H10.3582C10.2442 43.3823 10.1319 43.3823 10.0234 43.3909H9.98828C19.1999 43.1333 23.4103 38.5212 25.5003 31.8321C27.0883 26.761 28.3922 22.4889 29.5354 18.9043C25.6769 24.335 21.8012 30.8085 17.9046 38.0605C16.0255 41.5555 13.1683 43.0154 10.7174 43.3283" fill="url(#paint9_linear_2505_47092)"/>
<path d="M10.7153 43.3333C13.1657 43.0212 16.023 41.563 17.9021 38.0654C21.7987 30.8156 25.6765 24.3404 29.5307 18.9097C30.9332 14.5077 32.0904 11.1387 33.2263 8.57422C25.5432 15.8874 17.83 28.0476 10.7148 43.3298" fill="url(#paint10_linear_2505_47092)"/>
<path d="M6.58353 33.3926C4.95475 36.5318 3.1738 39.8764 1.19141 43.4121H4.66371C5.10222 40.0374 5.74332 36.6921 6.58353 33.3943" fill="#05A1E6"/>
<path d="M30.5504 0.997044C30.5221 0.997044 30.5011 1.01076 30.4767 1.01076C30.4347 1.0249 30.391 1.0249 30.3468 1.02919C30.3211 1.02919 30.2963 1.02919 30.2697 1.04334C30.2225 1.05705 30.1788 1.05834 30.133 1.06734C30.112 1.06734 30.091 1.06734 30.0734 1.08105C29.9735 1.09777 29.8753 1.1162 29.7776 1.13292H29.7442C29.6932 1.14706 29.6473 1.15435 29.6002 1.16121C29.5757 1.17492 29.5513 1.17492 29.5282 1.1805C29.481 1.19464 29.4339 1.20021 29.388 1.20879C29.3636 1.2225 29.3443 1.2225 29.3216 1.22379C29.1587 1.26322 28.9971 1.30523 28.8342 1.35023C28.8171 1.35023 28.7991 1.36395 28.7781 1.36695C28.7292 1.38066 28.6816 1.39481 28.6306 1.41024C28.6096 1.42438 28.5852 1.42438 28.5642 1.42996C28.5153 1.44348 28.4668 1.45791 28.4184 1.47325C28.3996 1.47325 28.3837 1.48696 28.3662 1.48696C28.2539 1.52897 28.1433 1.5714 28.0275 1.60612C27.9787 1.62155 27.926 1.64127 27.8732 1.6597C27.8522 1.67342 27.8334 1.67685 27.8089 1.68628C27.7596 1.70171 27.7104 1.72142 27.6649 1.73942C27.6478 1.75357 27.6298 1.75486 27.6178 1.76214C20.0067 4.76681 15.6942 15.8661 6.59322 33.4042C5.75226 36.7019 5.1113 40.0475 4.67383 43.4225H5.16118C6.53364 43.4225 6.92112 43.4083 8.50018 43.4083H10.0308C10.1392 43.3946 10.2515 43.3946 10.3651 43.3856H10.3866C10.4337 43.3856 10.4809 43.3719 10.5267 43.3719H10.5602C10.6107 43.3719 10.6686 43.3582 10.7247 43.3522C17.8399 28.0699 25.5527 15.9098 33.2362 8.59659C34.0806 6.68277 34.9134 5.22073 35.8251 4.11444C35.2919 3.21347 34.7081 2.45995 34.0562 1.91302C34.0562 1.91302 34.0386 1.91302 34.0373 1.89887C34 1.88387 33.9653 1.86544 33.9284 1.84744C33.8916 1.82729 33.8599 1.81186 33.8213 1.79257C33.7855 1.77749 33.7504 1.7606 33.7163 1.742C33.6708 1.72785 33.634 1.70814 33.5937 1.69013C33.5603 1.67599 33.5307 1.66184 33.4972 1.64813C33.4294 1.62177 33.3622 1.59362 33.2958 1.56369C33.2658 1.54997 33.2379 1.54226 33.2101 1.53154C33.1591 1.51298 33.1086 1.49297 33.0588 1.47153C33.0343 1.45739 33.0065 1.45439 32.9782 1.44453C32.9066 1.42053 32.8363 1.39524 32.7699 1.37295H32.7523C32.6717 1.34637 32.5928 1.32666 32.5105 1.30437C32.4913 1.29022 32.4754 1.29022 32.4561 1.28722C32.3841 1.26794 32.3211 1.24865 32.2529 1.23022C32.2358 1.23022 32.2195 1.21607 32.2058 1.21607C32.0382 1.17313 31.869 1.13624 31.6987 1.10549C31.6816 1.10549 31.664 1.09134 31.6464 1.09134C31.5739 1.07692 31.5008 1.0652 31.4274 1.05619C31.4094 1.04248 31.3991 1.04248 31.3837 1.04248C31.2974 1.02925 31.2108 1.01796 31.1239 1.00862H31.0785C31.0082 0.994901 30.9435 0.993615 30.8788 0.986328C30.7682 1.00004 30.6632 1.00604 30.5594 1.0159" fill="url(#paint11_linear_2505_47092)"/>
<path d="M82.3486 11.4022C80.5977 17.0116 79.1793 21.6391 77.9453 25.4465C82.7502 18.8346 87.4831 10.5166 91.9901 0.917969C86.733 2.56904 83.9281 6.34867 82.3486 11.4022Z" fill="url(#paint12_linear_2505_47092)"/>
<path d="M78.0962 40.9418C77.8511 41.067 77.6055 41.1857 77.3633 41.2924C86.7103 37.1241 97.8589 20.5906 103.197 0.00585938H102.115C89.8517 21.9121 85.9075 36.5771 78.0962 40.9418Z" fill="url(#paint13_linear_2505_47092)"/>
<path d="M71.9929 39.099C74.0263 36.6168 75.6829 32.3974 77.9444 25.4434C75.3357 29.0267 72.71 32.1064 70.0821 34.6185C70.0821 34.6323 70.0821 34.6323 70.0684 34.6408C70.6414 36.3588 71.2707 37.8748 71.9878 39.0985" fill="#079AE1"/>
<path d="M71.9925 39.1055C71.3003 39.9499 70.5673 40.5937 69.7521 41.0703C69.5733 41.174 69.3929 41.2717 69.209 41.3618C70.0934 41.8407 71.0614 42.1458 72.0606 42.2606C72.2149 42.276 72.3675 42.2902 72.527 42.3013H72.5553C72.6269 42.3013 72.7023 42.3013 72.7794 42.315H73.5403C73.5681 42.315 73.5973 42.315 73.6256 42.3013C73.68 42.3013 73.7374 42.3013 73.7936 42.2872H73.8767C73.9342 42.2872 73.9972 42.2734 74.0589 42.2674H74.0726C74.091 42.2674 74.1108 42.2537 74.1288 42.2537C74.1931 42.2396 74.2608 42.234 74.3234 42.2242H74.3812C74.4524 42.2104 74.5265 42.2014 74.5998 42.1877H74.6354C74.7824 42.1594 74.926 42.132 75.0717 42.0951C73.8656 41.6537 72.8557 40.6121 71.9865 39.129" fill="#1969BC"/>
<path d="M54.7637 42.3089C55.6385 42.3089 56.5219 42.2232 57.4092 42.053C58.2295 41.9043 59.0516 41.6759 59.8755 41.3887C60.5625 41.7261 61.29 41.9741 62.04 42.1268C62.6482 42.2497 63.2673 42.3107 63.8878 42.3089H54.7637Z" fill="#1E5CB3"/>
<path d="M63.8849 42.3131C66.0448 42.3131 67.7554 42.0572 69.2084 41.3594C70.093 41.8386 71.0611 42.144 72.0605 42.2591C72.2148 42.2741 72.3674 42.2882 72.5269 42.2994H72.5552C72.6267 42.2994 72.7022 42.2994 72.7793 42.3135H73.0417H63.8789L63.8849 42.3131Z" fill="#1E5CB3"/>
<path d="M73.0488 42.312H73.5486C73.5782 42.312 73.606 42.312 73.6343 42.2983C73.6888 42.2983 73.7462 42.2983 73.8045 42.2841H73.8872C73.9447 42.2841 74.0077 42.2704 74.0677 42.2648H74.0831C74.1015 42.2648 74.1195 42.2511 74.138 42.2511C74.2023 42.237 74.2696 42.2314 74.3321 42.2211C74.3536 42.2211 74.3703 42.2211 74.3926 42.2074C74.4642 42.1937 74.5383 42.1864 74.612 42.1727H74.6472C74.7942 42.1444 74.9378 42.1165 75.0831 42.0801C75.5112 42.2379 75.9642 42.3174 76.4204 42.315L73.0514 42.3287L73.0488 42.312Z" fill="#1D60B5"/>
<path d="M70.0749 34.643V34.6289C69.1532 35.5142 68.1917 36.3571 67.1933 37.1548C66.7022 37.5459 66.2 37.923 65.6875 38.2855C66.1097 38.7904 66.5392 39.2636 66.9918 39.6953C67.6789 40.3609 68.4131 40.922 69.2142 41.3549C69.3968 41.2649 69.5786 41.1672 69.756 41.0639C70.5726 40.5872 71.3055 39.9439 71.9977 39.0991C71.2811 37.8753 70.6519 36.3593 70.0784 34.6413" fill="#175FAB"/>
<path d="M98.6893 0.00585938H93.2453C92.9513 0.020004 92.6654 0.0298625 92.3834 0.0478648C92.2501 0.333759 92.1133 0.619653 91.9817 0.907261C87.4752 10.5059 82.7423 18.8238 77.9374 25.4358C75.6777 32.3895 74.0197 36.6088 71.9863 39.091C72.8556 40.5741 73.8671 41.6169 75.0694 42.0588C75.1046 42.0447 75.1329 42.0447 75.1642 42.0374H75.1839C75.2049 42.0374 75.2276 42.0237 75.2503 42.0237C75.2992 42.0095 75.3519 42.001 75.4012 41.986C75.4325 41.9718 75.4586 41.9705 75.4904 41.9603C75.5362 41.9465 75.5834 41.9367 75.6254 41.9255C75.6537 41.9114 75.6815 41.9071 75.7094 41.9015C75.7797 41.8788 75.8427 41.8621 75.9095 41.8411C75.9408 41.8274 75.9743 41.8154 76.0094 41.8072C76.048 41.7935 76.0866 41.7837 76.1217 41.7669C76.162 41.7528 76.2023 41.7455 76.2374 41.7305C76.2687 41.7164 76.3017 41.7078 76.3317 41.6954C76.4106 41.6671 76.4878 41.6435 76.5666 41.6126C76.5881 41.6126 76.6091 41.5929 76.6318 41.5886C76.6789 41.5689 76.7282 41.5535 76.7754 41.5325C76.7925 41.5183 76.8139 41.5171 76.8367 41.5098C77.0017 41.4412 77.1714 41.3709 77.3416 41.2942H77.3592C77.6062 41.1842 77.85 41.0673 78.0904 40.9435C85.903 36.5788 89.8476 21.9138 102.111 0.00757388H98.6855L98.6898 0.00585938H98.6893Z" fill="url(#paint14_linear_2505_47092)"/>
<path d="M30.8711 0.966651C30.8904 0.966651 30.908 0.966651 30.9268 0.980367C30.9744 0.980367 31.022 0.980367 31.0691 0.995798H31.1163C31.2024 1.00951 31.2881 1.01723 31.376 1.02966C31.3919 1.02966 31.406 1.02966 31.4197 1.04338C31.4917 1.05709 31.5655 1.06909 31.6388 1.07981C31.6546 1.07981 31.6756 1.09395 31.6932 1.09395C31.8616 1.12739 32.0335 1.16253 32.1981 1.20582C32.2136 1.20582 32.2298 1.21997 32.2436 1.21997C32.3138 1.23669 32.3769 1.25769 32.4472 1.27741C32.4686 1.27741 32.4836 1.29112 32.5029 1.29455C32.5856 1.31555 32.6628 1.33656 32.7429 1.36313C32.7468 1.36313 32.7515 1.36313 32.7609 1.37685C32.8295 1.39785 32.8994 1.42442 32.9709 1.44843C32.9997 1.46214 33.0258 1.46814 33.0519 1.475C33.1012 1.49643 33.1557 1.51701 33.2028 1.53672C33.2307 1.53672 33.2585 1.55644 33.2885 1.56673C33.3533 1.59587 33.4214 1.62245 33.4883 1.65031C33.5234 1.66445 33.553 1.68031 33.5869 1.69274C33.6254 1.71246 33.6653 1.73046 33.7073 1.74418C33.7425 1.76132 33.781 1.77933 33.8145 1.79476C33.8513 1.8149 33.8861 1.8299 33.9216 1.84962C34.7909 2.27739 35.592 2.84704 36.3335 3.53798C36.599 3.25839 36.8849 2.9988 37.1886 2.76131C35.5671 1.61088 33.7305 0.955078 31.6109 0.955078C31.3653 0.955078 31.1201 0.969223 30.8711 0.987654" fill="#7DCBEC"/>
<path d="M36.334 3.51733C36.7998 3.95386 37.2345 4.4225 37.6349 4.9198C38.0247 4.64621 38.4208 4.38181 38.823 4.12684C38.3185 3.6188 37.7715 3.1549 37.1878 2.74023C36.8841 2.97727 36.5986 3.2369 36.334 3.51691" fill="#5EC5ED"/>
<path d="M30.8711 0.965721C31.1197 0.944718 31.3653 0.935717 31.611 0.935717C33.7301 0.935717 35.5672 1.59152 37.1887 2.74023C38.8997 1.39006 40.9679 0.918572 43.8409 0.918572H29.9277C30.2492 0.918572 30.5625 0.93786 30.8711 0.965721Z" fill="url(#paint15_linear_2505_47092)"/>
<path d="M43.8398 0.919113C40.9667 0.919113 38.8986 1.3906 37.1875 2.74078C37.7704 3.15575 38.317 3.61947 38.8214 4.12695C41.2033 2.61262 43.5629 1.60963 45.8895 1.17157C46.7613 1.00578 47.6466 0.921262 48.5341 0.919113H43.8398Z" fill="url(#paint16_linear_2505_47092)"/>
<path d="M77.9461 25.4496C79.1818 21.6391 80.5967 17.0129 82.3511 11.4018C83.9327 6.34611 86.7316 2.56692 91.9888 0.917561C92.1276 0.635096 92.2588 0.344059 92.3938 0.0585938C83.8238 0.572088 79.8183 4.93165 77.8025 11.3876C74.2775 22.6588 72.1421 29.9651 70.0859 34.6209C72.7121 32.1108 75.3379 29.029 77.9461 25.4496Z" fill="url(#paint17_linear_2505_47092)"/>
<path d="M90.5163 39.3088H89.545V42.3277H89.149V39.3088H88.1738V38.9496H90.5158L90.5163 39.3088ZM94.4926 42.3268H94.0983V40.0585C94.0983 39.8798 94.112 39.6607 94.1305 39.4027C94.0897 39.557 94.0563 39.6642 94.0254 39.7327L92.8754 42.3268H92.6825L91.5295 39.752C91.4953 39.6805 91.4618 39.5643 91.4254 39.4031H91.4117C91.4254 39.539 91.4301 39.7589 91.4301 40.0641V42.3272H91.0512V38.9492H91.5737L92.6097 41.3067C92.6881 41.4837 92.7374 41.6204 92.7623 41.7117H92.7773C92.8459 41.5257 92.9024 41.3872 92.9402 41.296L93.9976 38.9492H94.4952V42.3268H94.4926Z" fill="white"/>
<defs>
<linearGradient id="paint0_linear_2505_47092" x1="1015.24" y1="-672.928" x2="1015.24" y2="4526.48" gradientUnits="userSpaceOnUse">
<stop stop-color="#0994DC"/>
<stop offset="0.35001" stop-color="#66CEF5"/>
<stop offset="0.84616" stop-color="#127BCA"/>
<stop offset="1" stop-color="#127BCA"/>
</linearGradient>
<linearGradient id="paint1_linear_2505_47092" x1="1065.27" y1="-691.397" x2="1065.27" y2="4640.42" gradientUnits="userSpaceOnUse">
<stop stop-color="#0E76BC"/>
<stop offset="0.36" stop-color="#36AEE8"/>
<stop offset="0.84616" stop-color="#00ADEF"/>
<stop offset="1" stop-color="#00ADEF"/>
</linearGradient>
<linearGradient id="paint2_linear_2505_47092" x1="1024.69" y1="4018.41" x2="1024.69" y2="-224.131" gradientUnits="userSpaceOnUse">
<stop stop-color="#1C63B7"/>
<stop offset="0.5" stop-color="#33BDF2"/>
<stop offset="1" stop-color="#33BDF2" stop-opacity="0.42"/>
</linearGradient>
<linearGradient id="paint3_linear_2505_47092" x1="1012.56" y1="-723.194" x2="1012.56" y2="4812.69" gradientUnits="userSpaceOnUse">
<stop stop-color="#166AB8"/>
<stop offset="0.39999" stop-color="#36AEE8"/>
<stop offset="0.84616" stop-color="#0798DD"/>
<stop offset="1" stop-color="#0798DD"/>
</linearGradient>
<linearGradient id="paint4_linear_2505_47092" x1="1291.18" y1="-768.548" x2="1291.18" y2="5118.14" gradientUnits="userSpaceOnUse">
<stop stop-color="#124379"/>
<stop offset="0.39" stop-color="#1487CB"/>
<stop offset="0.78023" stop-color="#165197"/>
<stop offset="1" stop-color="#165197"/>
</linearGradient>
<linearGradient id="paint5_linear_2505_47092" x1="29.5352" y1="668.345" x2="37.8587" y2="668.345" gradientUnits="userSpaceOnUse">
<stop stop-color="#33BDF2" stop-opacity="0.698"/>
<stop offset="1" stop-color="#1DACD8"/>
</linearGradient>
<linearGradient id="paint6_linear_2505_47092" x1="1771.55" y1="4004.89" x2="1771.55" y2="-127.947" gradientUnits="userSpaceOnUse">
<stop stop-color="#136AB4"/>
<stop offset="0.6" stop-color="#59CAF5" stop-opacity="0.549"/>
<stop offset="1" stop-color="#59CAF5" stop-opacity="0.235"/>
</linearGradient>
<linearGradient id="paint7_linear_2505_47092" x1="-0.0308705" y1="2126.06" x2="3087.02" y2="2126.06" gradientUnits="userSpaceOnUse">
<stop stop-color="#05A1E6" stop-opacity="0.247"/>
<stop offset="1" stop-color="#05A1E6"/>
</linearGradient>
<linearGradient id="paint8_linear_2505_47092" x1="1057.77" y1="3935.35" x2="1057.77" y2="-296.356" gradientUnits="userSpaceOnUse">
<stop stop-color="#318ED5"/>
<stop offset="1" stop-color="#38A7E4"/>
</linearGradient>
<linearGradient id="paint9_linear_2505_47092" x1="987.323" y1="2252.08" x2="987.323" y2="-1861.3" gradientUnits="userSpaceOnUse">
<stop stop-color="#05A1E6"/>
<stop offset="1" stop-color="#05A1E6" stop-opacity="0.549"/>
</linearGradient>
<linearGradient id="paint10_linear_2505_47092" x1="1136.29" y1="3484.83" x2="1136.29" y2="8.92187" gradientUnits="userSpaceOnUse">
<stop stop-color="#1959A6"/>
<stop offset="0.5" stop-color="#05A1E6"/>
<stop offset="0.91759" stop-color="#7EC5EA"/>
<stop offset="1" stop-color="#7EC5EA"/>
</linearGradient>
<linearGradient id="paint11_linear_2505_47092" x1="1867.65" y1="4014.09" x2="689.405" y2="413.294" gradientUnits="userSpaceOnUse">
<stop stop-color="#165096"/>
<stop offset="1" stop-color="#0D82CA"/>
</linearGradient>
<linearGradient id="paint12_linear_2505_47092" x1="780.115" y1="1889.57" x2="780.115" y2="-80.0018" gradientUnits="userSpaceOnUse">
<stop stop-color="#05A1E6"/>
<stop offset="0.87363" stop-color="#0495D6"/>
<stop offset="1" stop-color="#0495D6"/>
</linearGradient>
<linearGradient id="paint13_linear_2505_47092" x1="1763.32" y1="-171.788" x2="-72.2827" y2="3903.9" gradientUnits="userSpaceOnUse">
<stop stop-color="#38A7E4" stop-opacity="0.329"/>
<stop offset="0.96153" stop-color="#0E88D3"/>
<stop offset="1" stop-color="#0E88D3"/>
</linearGradient>
<linearGradient id="paint14_linear_2505_47092" x1="1578.71" y1="-12.4418" x2="1578.71" y2="4284.45" gradientUnits="userSpaceOnUse">
<stop stop-color="#168CD4"/>
<stop offset="0.5" stop-color="#1C87CC"/>
<stop offset="1" stop-color="#154B8D"/>
</linearGradient>
<linearGradient id="paint15_linear_2505_47092" x1="261.917" y1="-371.73" x2="280.542" y2="79.0055" gradientUnits="userSpaceOnUse">
<stop stop-color="#97D6EE"/>
<stop offset="0.70329" stop-color="#55C1EA"/>
<stop offset="1" stop-color="#55C1EA"/>
</linearGradient>
<linearGradient id="paint16_linear_2505_47092" x1="115.366" y1="-16.0824" x2="199.528" y2="-493.438" gradientUnits="userSpaceOnUse">
<stop stop-color="#7ACCEC"/>
<stop offset="1" stop-color="#3FB7ED"/>
</linearGradient>
<linearGradient id="paint17_linear_2505_47092" x1="1185.41" y1="219.978" x2="1185.41" y2="4422.68" gradientUnits="userSpaceOnUse">
<stop stop-color="#1DA7E7"/>
<stop offset="1" stop-color="#37ABE7" stop-opacity="0"/>
</linearGradient>
</defs>
</svg>
