<svg width="65" height="65" viewBox="0 0 65 65" fill="none" xmlns="http://www.w3.org/2000/svg">
<path d="M0 65V0H65V65H0Z" fill="#FFD600"/>
<path d="M42.4975 48.6541C43.747 50.6835 45.1047 52.6281 47.981 52.6281C50.3968 52.6281 51.6643 51.4274 51.6643 49.7663C51.6643 47.7784 50.3535 47.0724 47.6957 45.9151L46.2386 45.2939C42.0335 43.5101 39.2367 41.2748 39.2367 36.5533C39.2367 32.2019 42.5679 28.8905 47.7734 28.8905C51.4802 28.8905 54.1434 30.1742 56.0645 33.5362L51.5253 36.4377C50.5268 34.6538 49.4471 33.9515 47.7734 33.9515C46.0653 33.9515 44.9838 35.0294 44.9838 36.4377C44.9838 38.1783 46.0671 38.8824 48.5678 39.9603L50.0249 40.5814C54.9811 42.6921 57.7761 44.848 57.7761 49.6941C57.7761 54.9158 53.6522 57.7776 48.1164 57.7776C42.7016 57.7776 39.6267 55.0602 37.915 51.6964L42.4975 48.6541ZM21.5784 48.8021C22.492 50.438 23.8804 51.6964 25.8774 51.6964C27.7877 51.6964 28.8872 50.9417 28.8872 48.0077V28.8887H34.9052V48.9321C34.9052 55.0115 31.3789 57.7776 26.2295 57.7776C21.5766 57.7776 18.2182 54.6251 16.8496 51.6964L21.5784 48.8021Z" fill="#000001"/>
</svg>
