<svg width="80" height="78" viewBox="0 0 80 78" fill="none" xmlns="http://www.w3.org/2000/svg">
<path d="M17.4835 11.8713C12.9224 18.5477 13.4905 27.2331 16.9655 34.3188L17.2211 34.8238L17.3938 35.1433C17.4257 35.2054 17.4628 35.2667 17.4956 35.3272C17.5561 35.4394 17.6165 35.5473 17.6683 35.6579L18.0007 36.2389L18.1906 36.5583L18.5766 37.1731L18.7492 37.4321C18.9219 37.7083 19.117 37.9829 19.3087 38.254C19.313 38.2609 19.3191 38.2687 19.3242 38.2756C19.3545 38.3187 19.3881 38.3619 19.4106 38.4051C19.5763 38.6382 19.7559 38.8678 19.9286 39.0958L20.1203 39.3444L20.5908 39.9332L20.7704 40.1525C20.9844 40.4109 21.2031 40.6654 21.4265 40.9157L21.4403 40.9296C21.449 40.9408 21.4576 40.9468 21.4662 40.958C21.6827 41.2022 21.9049 41.4411 22.1328 41.6746L22.3469 41.8939L22.8796 42.4258L23.0971 42.6364C23.3365 42.8658 23.5797 43.0912 23.8267 43.3124L23.9648 43.4333L24.627 44.0031L24.9016 44.2259L25.4541 44.6576L25.7494 44.8864L26.5937 45.5037C26.6153 45.5183 26.6343 45.5339 26.6559 45.5486C26.8545 45.6867 27.0556 45.8205 27.2577 45.9543L27.5184 46.1313L28.4612 46.7184L28.7219 46.8678L29.4299 47.2718C29.5594 47.3426 29.6915 47.41 29.821 47.4773L30.3269 47.7363L30.4435 47.7933L30.6507 47.8952L31.4536 48.2733L31.6237 48.3597C31.9333 48.4973 32.2453 48.6295 32.5596 48.756L32.7875 48.8475L33.6707 49.1807L33.7812 49.2205C34.1074 49.3355 34.4355 49.4449 34.7655 49.5485L35.0029 49.6211C35.3482 49.7247 35.672 49.8481 36.0191 49.9146C58.0763 54.0208 64.485 36.4237 64.485 36.4237C59.1037 43.5637 49.5523 45.4458 40.5025 43.3504C40.1598 43.2641 39.8274 43.1631 39.4924 43.0621L39.2403 42.9757C38.9139 42.8739 38.5893 42.7659 38.2681 42.6537L38.1343 42.6045C37.8469 42.5009 37.5611 42.393 37.277 42.2807L37.0353 42.184C36.7244 42.0591 36.4158 41.9284 36.1097 41.7921L35.925 41.7092L35.1445 41.3379L34.92 41.2274C34.7172 41.1255 34.5158 41.021 34.3157 40.914L33.9125 40.6982C33.6689 40.5647 33.4276 40.4268 33.189 40.2846L32.9446 40.1465C32.6269 39.9565 32.3127 39.758 32.0019 39.5594C31.9155 39.5033 31.8326 39.4437 31.7472 39.3867L31.0763 38.9326L30.8605 38.7772L30.2259 38.311L29.9445 38.0951L29.372 37.6393L29.1165 37.4321L28.4042 36.8277C28.38 36.8061 28.3524 36.7845 28.3179 36.7612C28.0641 36.5342 27.8145 36.3011 27.5685 36.0671L27.3578 35.8599L26.8191 35.3229L26.6084 35.107C26.384 34.8739 26.1638 34.6367 25.948 34.3956C25.9376 34.3835 25.9255 34.3723 25.9151 34.3611C25.687 34.1063 25.4636 33.8472 25.2452 33.584L25.0699 33.3717L24.5864 32.7647L24.4094 32.5402L23.8526 31.7848C18.8278 24.8045 17.032 15.178 21.038 7.27126M31.6427 6.24558C28.3446 11.0804 28.5234 17.5505 31.0962 22.6633C31.5265 23.5219 32.014 24.3505 32.5553 25.1438C33.0491 25.8647 33.5973 26.7237 34.2535 27.3022C34.4909 27.5612 34.7396 27.8202 34.9934 28.0844C35.0573 28.1509 35.1229 28.2139 35.1885 28.2804C35.4349 28.525 35.6871 28.7636 35.9448 28.9961C35.9552 29.0048 35.9647 29.0151 35.9759 29.0238C36.2662 29.2817 36.563 29.5322 36.866 29.7749L37.0663 29.9337C37.3681 30.1709 37.6762 30.4001 37.9901 30.621C37.9986 30.6279 38.0072 30.6345 38.016 30.6408C38.1542 30.7384 38.2966 30.8308 38.4374 30.924C38.5047 30.9689 38.5686 31.0164 38.6359 31.0587C38.861 31.2061 39.0893 31.3486 39.3206 31.4861L39.4173 31.5431L40.0216 31.8884C40.0924 31.929 40.1649 31.9644 40.2375 32.0024L40.6691 32.2251C40.6907 32.2363 40.7123 32.245 40.733 32.2553C41.024 32.4021 41.3167 32.5402 41.6163 32.6741C41.6801 32.7026 41.7458 32.7285 41.8114 32.7561C42.0505 32.8597 42.2923 32.9598 42.5366 33.0557L42.8474 33.1714C43.0678 33.2534 43.2894 33.3319 43.5122 33.4071L43.8127 33.5046C44.1295 33.6056 44.4429 33.7317 44.7736 33.7878C61.8034 36.6611 65.736 23.3065 65.736 23.3065C62.1919 28.504 55.329 30.9853 48.0043 29.0497C47.6803 28.9636 47.3587 28.8686 47.0399 28.7647C46.9423 28.7345 46.8465 28.7026 46.7498 28.6784C46.5236 28.6037 46.2988 28.5249 46.0755 28.4418L45.7708 28.3262C45.5264 28.2398 45.2847 28.1319 45.0455 28.0283C44.9799 27.9998 44.9143 27.9739 44.8496 27.9437C44.5491 27.8122 44.2526 27.672 43.9603 27.5232C43.8101 27.4481 43.6624 27.3695 43.5148 27.2918L43.2575 27.1572C43.0676 27.0528 42.8796 26.9448 42.6937 26.8334L42.559 26.7471C42.3291 26.6096 42.1017 26.468 41.877 26.3223C41.8079 26.2774 41.7406 26.2359 41.6715 26.1824L41.2295 25.8846C40.9172 25.6635 40.6103 25.4349 40.3091 25.199L40.1019 25.0333C36.8963 22.4553 34.3545 18.9327 33.1467 14.9379C31.8801 10.7938 32.1538 6.14457 34.3554 2.3708M43.5485 2.04272C41.6042 4.95744 41.4134 8.57667 42.7714 11.7953C44.1943 15.2116 47.1098 17.8924 50.5123 19.1624C50.6522 19.2159 50.7929 19.2634 50.944 19.3118L51.1305 19.3722C51.3308 19.4361 51.5303 19.5103 51.7366 19.55C61.1403 21.4002 63.6907 14.6358 64.3693 13.6403C62.1349 16.9168 58.3802 17.7033 53.7733 16.5645C53.4107 16.4739 53.0092 16.34 52.6509 16.214C52.2001 16.0509 51.7583 15.8638 51.3274 15.6537C50.5075 15.2516 49.73 14.7683 49.0066 14.211C44.8755 11.0252 42.3139 4.94881 45.0041 0" fill="#0868AC"/>
<path d="M41.5037 58.7431H38.5855C38.4232 58.7431 38.2626 58.8726 38.2281 59.0314L36.156 68.6208C36.1215 68.7788 35.9609 68.9083 35.7995 68.9083H33.7334C31.689 68.9083 31.9255 67.495 32.352 65.5585L32.365 65.4998L32.6128 64.1788L32.7198 63.6349L33.6626 59.0314C33.6954 58.8726 33.5892 58.7422 33.4269 58.7422H30.4311C30.3485 58.745 30.2691 58.7747 30.2049 58.8268C30.1407 58.8788 30.0952 58.9503 30.0754 59.0306L28.7259 65.4315C27.9834 68.8194 28.1803 72.0501 32.2139 72.1511L32.3305 72.1537H38.6606C38.823 72.1537 38.9827 72.0242 39.0172 71.8653L41.7472 59.0306C41.7817 58.8717 41.6755 58.7422 41.5141 58.7422L41.5037 58.7431ZM53.1479 68.942C53.3102 68.942 53.4069 69.0715 53.3836 69.2304L53.1004 70.616" fill="white"/>
<path d="M45.3395 67.157C45.3369 67.0051 45.5096 66.7443 45.6719 66.7443L45.3075 66.7383C45.1349 68.3908 45.3395 67.157 45.3395 67.157ZM53.1469 68.9407C53.3092 68.9407 53.4059 69.0702 53.3826 69.2291L53.0528 70.8401" fill="white"/>
<path d="M47.7176 72.3223H47.5811H47.7348H47.7176ZM4.81016 67.1956L5.26342 65.1857L4.7454 67.4823L4.68497 67.7706L4.81102 67.1939L4.81016 67.1956ZM10.2373 58.7131H7.03159C6.94876 58.7163 6.86914 58.746 6.80436 58.7977C6.73959 58.8494 6.69305 58.9205 6.67157 59.0006L6.06376 61.677C6.05354 61.7116 6.05184 61.7482 6.05879 61.7837C6.06574 61.8191 6.08114 61.8524 6.10368 61.8806C6.12622 61.9088 6.15524 61.9312 6.18827 61.9458C6.2213 61.9604 6.25737 61.9668 6.29341 61.9645H9.52412C9.68643 61.9645 9.84701 61.835 9.88155 61.677L10.4686 58.9945C10.5032 58.8365 10.3996 58.707 10.2355 58.707L10.2373 58.7131ZM0.227426 77.5888L2.87104 77.6096C2.09056 77.6096 0.801562 77.5949 0.226562 77.588L0.227426 77.5888Z" fill="white"/>
<path d="M9.3083 62.8843H6.07673C5.9939 62.8875 5.91428 62.9172 5.84951 62.9689C5.78473 63.0207 5.7382 63.0917 5.71671 63.1718L4.81018 67.1916L4.68413 67.7684L3.82077 71.8719C3.77799 72.0634 3.72613 72.2527 3.66536 72.4392C3.66536 72.4392 3.06101 74.235 2.04742 74.2151L1.0416 74.1961C0.959101 74.1984 0.879482 74.227 0.814285 74.2776C0.749087 74.3282 0.701699 74.3982 0.678989 74.4776L0.00988292 77.2947C-0.000688285 77.3292 -0.00281622 77.3656 0.00367885 77.4011C0.0101739 77.4365 0.0251012 77.4699 0.0471998 77.4983C0.0692985 77.5268 0.0979193 77.5495 0.130645 77.5645C0.16337 77.5796 0.199239 77.5865 0.235221 77.5848L2.8797 77.6064C5.41453 77.6064 6.75016 76.2017 7.60748 72.1612L9.55004 63.1822C9.58458 63.0242 9.47925 62.8947 9.31693 62.8947L9.3083 62.8843ZM55.2064 72.1551C55.0441 72.1551 54.9474 72.0256 54.9733 71.8668L57.4037 60.4824" fill="white"/>
<path d="M55.0096 72.0123C54.9898 71.9328 55.001 71.7386 55.0355 71.5806L56.189 66.1759L54.9734 71.8681C54.9388 72.0269 55.0442 72.1564 55.2065 72.1564H55.5017C55.3394 72.1564 55.0286 72.0917 55.0096 72.0123ZM58.394 72.0917C58.3059 72.1262 58.1005 72.1564 57.9381 72.1564H58.2334C58.3158 72.1532 58.3949 72.1232 58.4588 72.071C58.5226 72.0189 58.5678 71.9473 58.5874 71.8672L58.6461 71.5788C58.6142 71.7377 58.4734 72.0563 58.3871 72.0917H58.394ZM68.6663 61.2461L68.8001 61.7986C68.8372 61.9566 68.7345 62.0853 68.573 62.0861" fill="white"/>
<path d="M59.508 67.2916L59.6271 66.7184L60.0908 64.547L59.5658 67.0059L59.508 67.2916ZM57.442 60.2949L57.341 60.7698L56.1875 66.1744L57.4031 60.4823L57.442 60.2958V60.2949Z" fill="white"/>
<path d="M68.8007 61.7984L68.6669 61.2459L68.4683 60.3825C68.2059 59.3638 67.4357 58.7741 65.7625 58.7741L58.0613 58.7689C57.9788 58.7717 57.8993 58.8014 57.8352 58.8535C57.771 58.9055 57.7255 58.977 57.7056 59.0573L57.5865 59.621L57.4138 60.4732L55.0448 71.57C55.0102 71.7289 54.999 71.9154 55.0189 72.0017C55.0387 72.088 55.3495 72.1459 55.511 72.1459H57.9457C58.108 72.1459 58.3126 72.1165 58.4015 72.0811C58.4904 72.0457 58.6208 71.7358 58.6605 71.5683L59.5843 66.9976L60.5729 62.3665C60.6074 62.2085 60.7671 62.0799 60.9286 62.079L68.5892 62.0756C68.7506 62.0756 68.8534 61.9461 68.8163 61.7881L68.8007 61.7984ZM78.6629 56.797L78.0732 56.7996H75.6213C75.5315 56.8049 75.4439 56.8294 75.3644 56.8714C75.2849 56.9134 75.2153 56.9719 75.1602 57.043L69.7383 64.986C69.6468 65.1198 69.5423 65.1 69.5052 64.9428L69.1063 63.1928C69.0849 63.1127 69.0383 63.0416 68.9735 62.9899C68.9088 62.9382 68.8292 62.9085 68.7463 62.9053H65.2609C65.0986 62.9053 65.0019 63.0322 65.0468 63.1885L66.6009 68.6605C66.6458 68.8159 66.6483 69.0723 66.6095 69.2303L65.9188 71.8782C65.907 71.9122 65.9039 71.9485 65.9098 71.984C65.9156 72.0195 65.9302 72.0529 65.9523 72.0813C65.9743 72.1097 66.0031 72.1321 66.036 72.1466C66.0689 72.161 66.1049 72.167 66.1407 72.164H69.5941C69.7565 72.164 69.9222 72.0345 69.9619 71.8791L70.6526 69.2312C70.7068 69.0447 70.7914 68.8685 70.903 68.7097L79.7145 57.0258C79.812 56.8963 79.7594 56.7909 79.5971 56.7927L78.6733 56.7987L78.6629 56.797ZM50.9697 63.6495C50.949 63.8222 50.7867 63.9517 50.6243 63.9517H46.2039C46.0511 63.9517 45.9734 63.8481 45.9967 63.7186L46.0002 63.6953L46.02 63.6201C46.4517 62.4978 47.3021 61.7613 48.9175 61.7613C50.7366 61.7613 51.0914 62.6506 50.968 63.6495H50.9697ZM49.6729 58.5487C44.0006 58.5487 42.6564 61.9918 41.9026 65.4669C41.1481 69.0093 41.2137 72.322 47.0828 72.322H48.0135L48.7301 72.3194L52.465 72.297C52.547 72.2932 52.6255 72.2629 52.6888 72.2108C52.7522 72.1587 52.7969 72.0874 52.8164 72.0077L53.3836 69.2346C53.4165 69.0758 53.3103 68.9462 53.1479 68.9462H47.8711C45.7731 68.9462 45.1489 68.3885 45.3785 66.749H53.8136C53.9517 66.7464 54.0769 66.6626 54.1261 66.5314C54.1348 66.5081 54.1434 66.4831 54.1469 66.458C55.3987 61.7354 55.0396 58.5522 49.6746 58.5522L49.6729 58.5487ZM22.862 63.6305L22.7826 63.9128L22.1455 66.1714L21.5083 68.4282C21.4818 68.5078 21.4318 68.5775 21.3649 68.628C21.298 68.6786 21.2174 68.7077 21.1336 68.7114H17.7613C15.204 68.7114 14.5815 66.711 15.204 63.7609C15.8256 60.7434 17.0473 58.8673 19.564 58.6774C23.0036 58.4184 23.6909 60.8375 22.862 63.6296V63.6305ZM25.1741 68.5387C25.1741 68.5387 26.7627 64.6795 27.1253 62.4494C27.6174 59.4648 26.1238 55.1367 20.3522 55.1367C14.6135 55.1367 12.1218 59.2688 11.1712 63.7704C10.2215 68.2944 11.4665 72.2624 17.1716 72.2314L25.8795 72.1994C25.963 72.1954 26.0432 72.1657 26.1092 72.1144C26.1752 72.0631 26.2237 71.9927 26.2482 71.9128L26.982 69.1172C26.9939 69.0833 26.9971 69.0471 26.9915 69.0116C26.9858 68.9762 26.9714 68.9427 26.9495 68.9143C26.9277 68.8858 26.899 68.8633 26.8663 68.8487C26.8335 68.834 26.7976 68.8278 26.7619 68.8306L25.3572 68.8219C25.219 68.8211 25.1413 68.7321 25.1569 68.6147C25.1603 68.5931 25.1655 68.5715 25.1741 68.5491V68.5387Z" fill="white"/>
<path d="M53.5801 65.9571C53.5801 66.0641 53.4938 66.1505 53.3868 66.1505C53.2797 66.1505 53.1934 66.0641 53.1934 65.9571C53.1934 65.85 53.2797 65.7637 53.3868 65.7637C53.4938 65.7637 53.5801 65.85 53.5801 65.9571Z" fill="white"/>
</svg>
