<svg width="160" height="135" viewBox="0 0 160 135" fill="none" xmlns="http://www.w3.org/2000/svg">
<g filter="url(#filter0_d_2505_47066)">
<path fill-rule="evenodd" clip-rule="evenodd" d="M104.679 65.594C104.106 65.0211 96.7882 55.8023 95.5513 54.2789C94.2231 52.7555 93.6502 53.0419 92.7908 53.1396C91.938 53.2372 82.7127 54.8518 81.6645 54.943C80.6164 55.1318 79.9523 55.5159 80.6164 56.4664C81.1893 57.3193 87.27 65.8805 88.6046 67.8792L64.3598 73.6799L45.1541 41.4404C44.3924 40.301 44.2036 39.9169 42.4914 40.0146C40.7791 40.1122 27.3742 41.2516 26.4236 41.2516C25.4666 41.3492 24.4249 41.7268 25.3755 44.012C26.326 46.2906 41.5408 78.9989 41.9184 79.9495C42.296 80.9 43.4419 82.4234 46.007 81.8505C48.6697 81.1864 57.7973 78.8101 62.8364 77.4755C65.4992 82.2281 70.8247 91.9286 71.8729 93.3544C73.201 95.2555 74.158 94.8779 76.1502 94.3049C77.7648 93.8297 101.066 85.4638 102.107 84.9885C103.155 84.5133 103.819 84.2268 103.058 83.1786C102.485 82.4169 96.4041 74.1422 93.1684 69.8648C95.3559 69.2919 103.247 67.2021 104.106 66.9156C105.056 66.6422 105.245 66.1669 104.679 65.594ZM60.6489 74.6305C60.3624 74.7281 46.7687 77.9573 46.0981 78.1461C45.3364 78.3349 45.3364 78.2437 45.3364 77.9573C45.1541 77.6708 29.1776 44.5784 28.8911 44.2008C28.7023 43.8232 28.7023 43.4391 28.8911 43.4391C29.0799 43.4391 41.7296 42.2997 42.1072 42.2997C42.5825 42.2997 42.4848 42.3974 42.6802 42.6773C42.6802 42.6773 60.4601 73.3935 60.7466 73.8687C61.1242 74.344 60.9354 74.5328 60.6489 74.6305ZM98.8781 81.7594C99.0669 82.137 99.3533 82.3323 98.5916 82.5211C97.9276 82.8075 75.6749 90.3206 75.1997 90.5094C74.7244 90.6982 74.438 90.7958 73.8716 89.9364C73.2986 89.0836 66.0721 76.6226 66.0721 76.6226L89.7505 70.4443C90.3234 70.2555 90.5122 70.1578 90.8898 70.7307C91.2674 71.3948 98.6893 81.4729 98.8781 81.7594ZM100.395 65.0211C99.8221 65.1187 91.1697 67.3062 91.1697 67.3062L84.0408 57.6057C83.852 57.3193 83.6632 57.0328 84.1385 56.9417C84.6138 56.844 92.6997 55.4182 93.0773 55.3271C93.4549 55.2294 93.7414 55.1383 94.2166 55.8023C94.6919 56.3752 100.779 64.1682 101.066 64.4547C101.346 64.7411 100.968 64.9299 100.395 65.0211Z" fill="#FB503B"/>
</g>
<defs>
<filter id="filter0_d_2505_47066" x="0" y="0" width="159.998" height="134.77" filterUnits="userSpaceOnUse" color-interpolation-filters="sRGB">
<feFlood flood-opacity="0" result="BackgroundImageFix"/>
<feColorMatrix in="SourceAlpha" type="matrix" values="0 0 0 0 0 0 0 0 0 0 0 0 0 0 0 0 0 0 127 0" result="hardAlpha"/>
<feOffset dx="15"/>
<feGaussianBlur stdDeviation="20"/>
<feComposite in2="hardAlpha" operator="out"/>
<feColorMatrix type="matrix" values="0 0 0 0 0.984314 0 0 0 0 0.313726 0 0 0 0 0.231373 0 0 0 0.5 0"/>
<feBlend mode="normal" in2="BackgroundImageFix" result="effect1_dropShadow_2505_47066"/>
<feBlend mode="normal" in="SourceGraphic" in2="effect1_dropShadow_2505_47066" result="shape"/>
</filter>
</defs>
</svg>
