<svg width="51" height="58" viewBox="0 0 51 58" fill="none" xmlns="http://www.w3.org/2000/svg">
<path fill-rule="evenodd" clip-rule="evenodd" d="M32.0177 40.7427C22.8003 40.7427 20.8679 36.513 20.8679 32.9617C20.8679 32.6248 21.1393 32.3534 21.4761 32.3534H24.1993C24.4987 32.3534 24.7514 32.5733 24.7982 32.8681C25.2099 35.6427 26.4311 37.0417 32.0084 37.0417C36.4486 37.0417 38.3342 36.0404 38.3342 33.6822C38.3342 32.3253 37.7961 31.3194 30.8995 30.6456C25.1304 30.0748 21.565 28.8068 21.565 24.1887C21.565 19.9403 25.1491 17.409 31.1568 17.409C37.9038 17.409 41.2445 19.7485 41.6656 24.783C41.6796 24.9561 41.6188 25.1245 41.5018 25.2508C41.3849 25.3725 41.2211 25.4474 41.0527 25.4474H38.3202C38.0348 25.4474 37.7868 25.2462 37.7306 24.9748C37.0709 22.0598 35.4801 21.1241 31.1474 21.1241C26.3001 21.1241 25.7386 22.8131 25.7386 24.0764C25.7386 25.6111 26.403 26.0603 32.9441 26.9259C39.4197 27.7868 42.4938 28.9986 42.4938 33.5512C42.4938 38.1412 38.6664 40.7707 31.9896 40.7707L32.0177 40.7427ZM25.5094 57.4931C24.7373 57.4931 23.9747 57.2919 23.3009 56.9036L16.2685 52.7394C15.2158 52.1498 15.7305 51.944 16.0767 51.8223C17.4757 51.331 17.7611 51.2234 19.2583 50.3719C19.4174 50.283 19.6233 50.3157 19.7824 50.4093L25.1865 53.6143C25.383 53.7219 25.6591 53.7219 25.8416 53.6143L46.9106 41.4539C47.1072 41.3416 47.2335 41.117 47.2335 40.883V16.5762C47.2335 16.3329 47.1072 16.1176 46.906 15.996L25.8416 3.84489C25.645 3.72791 25.3877 3.72791 25.1912 3.84489L4.13615 15.996C3.93028 16.113 3.80395 16.3375 3.80395 16.5715V40.883C3.80395 41.117 3.93028 41.3369 4.13147 41.4492L9.90055 44.7806C13.0307 46.348 14.9491 44.4998 14.9491 42.647V18.6489C14.9491 18.3074 15.2158 18.0407 15.562 18.0407H18.229C18.5612 18.0407 18.8372 18.3027 18.8372 18.6489V42.6563C18.8372 46.8346 16.5586 49.2302 12.6003 49.2302C11.3838 49.2302 10.4199 49.2302 7.74358 47.9108L2.20844 44.7244C0.842202 43.9337 0 42.4598 0 40.883V16.5715C0 14.99 0.842202 13.5115 2.20844 12.7301L23.2962 0.564977C24.6297 -0.188326 26.403 -0.188326 27.7272 0.564977L48.7916 12.7348C50.1531 13.5208 51 14.99 51 16.5762V40.8877C51 42.4645 50.1531 43.9337 48.7916 44.7291L27.7272 56.8942C27.0534 57.2826 26.2861 57.4838 25.5094 57.4838V57.4931Z" fill="#689F63"/>
</svg>
