<svg width="96" height="49" viewBox="0 0 96 49" fill="none" xmlns="http://www.w3.org/2000/svg">
<path fill-rule="evenodd" clip-rule="evenodd" d="M47.7493 48.4728C74.1187 48.4728 95.4986 37.6215 95.4986 24.2325C95.4986 10.8513 74.1187 0 47.7493 0C21.3799 0 0 10.8513 0 24.2403C0 37.6215 21.3799 48.4728 47.7493 48.4728ZM72.9607 19.4529C72.5954 19.0482 71.6317 18.8458 70.0618 18.8458H67.6915L66.3003 25.9995H67.6604C68.6163 25.9995 69.4246 25.9139 70.1007 25.7426C70.6913 25.5947 71.1654 25.3846 71.5229 25.1121C71.8727 24.8475 72.168 24.4738 72.4167 23.9912C72.6964 23.4541 72.9218 22.7846 73.0773 21.9828C73.2249 21.2355 73.2638 20.6206 73.2016 20.1302C73.1628 19.811 73.085 19.5853 72.9607 19.4529ZM42.4024 5.34002H47.6949C48.5498 5.34002 49.2492 6.04061 49.2492 6.89688C49.2492 7.02921 49.2337 7.16155 49.2026 7.2861L48.3166 11.8555H51.1455C52.7543 11.8555 54.1299 12.0034 55.2801 12.2914C56.5546 12.6183 57.5727 13.1243 58.3344 13.8249C58.9949 14.4321 59.4613 15.1794 59.741 16.0668L60.2928 13.2099C60.3939 12.4471 61.0467 11.8555 61.8316 11.8555H72.0903C73.8 11.8555 75.3077 12.089 76.6134 12.5638C77.989 13.062 79.1236 13.8171 80.0096 14.8291C80.9034 15.8566 81.4862 17.0709 81.7505 18.4799C81.9992 19.811 81.9681 21.29 81.6494 22.9325C81.5173 23.5942 81.3386 24.2481 81.1132 24.8864C80.8878 25.5169 80.6158 26.1163 80.2972 26.6845C79.9708 27.2606 79.6055 27.8133 79.2014 28.3192C78.7895 28.833 78.3309 29.3312 77.8258 29.7905C77.2118 30.3665 76.5668 30.8569 75.8906 31.2617C75.1912 31.6821 74.4684 32.009 73.7145 32.2581C72.984 32.4994 72.1447 32.6785 71.2121 32.7952C70.2872 32.912 69.3002 32.9743 68.2588 32.9743H64.9714L63.9455 38.143C63.8445 38.9059 63.1917 39.4975 62.4067 39.4975H57.0753C56.9821 39.4975 56.881 39.4897 56.78 39.4664C55.9407 39.3029 55.3889 38.4933 55.5443 37.6448L56.4614 32.9198C56.337 32.9509 56.2049 32.9665 56.0728 32.9665H50.6948C49.8399 32.9665 49.1404 32.2659 49.1404 31.4096C49.1404 31.2773 49.156 31.1449 49.1871 31.0204L51.2699 20.2703C51.3631 19.7955 51.3942 19.4296 51.3631 19.1649C51.3554 19.0871 51.4175 19.126 51.3942 19.0949L51.1766 19.0404C50.8658 18.9625 50.4305 18.9236 49.871 18.9236H46.9177L44.4541 31.7132C44.3142 32.4605 43.6614 32.9743 42.9309 32.9743H37.6383C36.7834 32.9743 36.084 32.2737 36.084 31.4174C36.084 31.2851 36.0995 31.1527 36.1306 31.0282L36.4104 29.5725L36.1772 29.7905C35.5633 30.3665 34.9182 30.8569 34.2421 31.2617C33.5426 31.6821 32.8199 32.009 32.066 32.2581C31.3355 32.4994 30.4961 32.6785 29.5635 32.7952C28.6387 32.912 27.6517 32.9743 26.6103 32.9743H23.3151L22.3125 38.143C22.2115 38.9059 21.5587 39.4975 20.7737 39.4975H15.4424C15.3491 39.4975 15.2481 39.4897 15.147 39.4664C14.3077 39.3029 13.7559 38.4933 13.9113 37.6448L18.6521 13.2099C18.7531 12.4471 19.4059 11.8555 20.1909 11.8555H30.4495C32.1593 11.8555 33.667 12.089 34.9726 12.5638C36.356 13.062 37.4829 13.8171 38.3689 14.8291C38.6331 15.1327 38.874 15.4596 39.0916 15.8021L40.8791 6.60886C41.019 5.86157 41.6718 5.34002 42.4024 5.34002ZM31.3355 19.4529C30.9702 19.0482 30.0065 18.8458 28.4366 18.8458H26.0585L24.6674 25.9995H26.0274C26.9833 25.9995 27.7916 25.9139 28.4677 25.7426C29.0584 25.5947 29.5324 25.3846 29.8899 25.1121C30.2397 24.8475 30.535 24.4738 30.7837 23.9912C31.0635 23.4541 31.2888 22.7846 31.4443 21.9828C31.5919 21.2355 31.6308 20.6206 31.5686 20.1302C31.5298 19.811 31.4521 19.5853 31.3355 19.4529Z" fill="#6884BA"/>
<path fill-rule="evenodd" clip-rule="evenodd" d="M69.9824 17.4101C72.0171 17.4101 73.3736 17.7758 74.0441 18.5073C74.7223 19.2387 74.8782 20.4959 74.5274 22.2865C74.161 24.1456 73.4438 25.4714 72.3913 26.2638C71.3389 27.0562 69.7252 27.4524 67.5735 27.4524H64.3227L66.3184 17.4025H69.9824V17.4101ZM42.2371 7.23828H47.546L46.2753 13.6233H51.0074C53.9854 13.6233 56.0357 14.1338 57.1661 15.1472C58.2965 16.1605 58.6317 17.8063 58.1796 20.0769L55.9577 31.2468H50.563L52.6757 20.6255C52.9174 19.414 52.8238 18.5911 52.4106 18.1568C51.9897 17.7149 51.1087 17.4939 49.7445 17.4939H45.5035L42.7672 31.2468H37.4582L42.2371 7.23828ZM28.228 17.4101C30.2627 17.4101 31.6192 17.7758 32.2896 18.5073C32.9678 19.2387 33.1316 20.4959 32.7729 22.2865C32.4065 24.1456 31.6893 25.4714 30.6369 26.2638C29.5845 27.0562 27.9707 27.4524 25.8191 27.4524H22.5682L24.5639 17.4025H28.228V17.4101ZM15.1934 37.6242H20.5413L21.812 31.2392H26.396C28.4151 31.2392 30.0834 31.0335 31.3853 30.6144C32.695 30.203 33.88 29.502 34.948 28.5267C35.8445 27.7191 36.5695 26.8352 37.123 25.8599C37.6765 24.8923 38.0741 23.818 38.308 22.6446C38.8771 19.8026 38.4483 17.5853 37.0295 15.9929C35.6106 14.4081 33.3498 13.608 30.2549 13.608H19.9644L15.1934 37.6242ZM56.9478 37.6242H62.2957L63.5665 31.2392H68.1504C70.1695 31.2392 71.8378 31.0335 73.1397 30.6144C74.4494 30.203 75.6344 29.502 76.7024 28.5267C77.599 27.7191 78.324 26.8352 78.8775 25.8599C79.431 24.8923 79.8286 23.818 80.0624 22.6446C80.6315 19.8026 80.2028 17.5853 78.7839 15.9929C77.3651 14.4081 75.1043 13.608 72.0093 13.608H61.7189L56.9478 37.6242Z" fill="white"/>
</svg>
