<svg width="158" height="56" viewBox="0 0 158 56" fill="none" xmlns="http://www.w3.org/2000/svg">
<path fill-rule="evenodd" clip-rule="evenodd" d="M136.805 48.0733V55.2589H149.787C152.446 55.2589 157.012 53.3136 157.171 47.8748V45.0958C157.171 40.451 153.36 37.7117 149.787 37.7117H143.316V34.3769H156.138V27.1516H143.832C140.656 27.1516 136.408 29.7718 136.408 34.6548V37.1559C136.408 42.0389 140.616 44.54 143.832 44.54C152.764 44.5797 141.688 44.54 149.945 44.54V48.0336M67.2513 46.3265C67.2513 46.3265 74.1987 45.731 74.1987 36.7589C74.1987 27.7868 65.7824 26.9531 65.7824 26.9531H50.6172V55.2589H58.2395V48.4306L64.8296 55.2589H76.1043L67.2513 46.3265ZM64.3135 40.5304H58.2395V34.0593H64.3532C64.3532 34.0593 66.0603 34.6945 66.0603 37.275C66.0603 39.8555 64.3135 40.5304 64.3135 40.5304ZM93.0163 27.1516H85.2749C79.7566 27.1516 77.8907 32.1538 77.8907 34.5357V55.2589H85.6322V50.2964H92.8972V55.2589H100.4V34.5357C100.4 28.5014 94.9218 27.1516 93.0163 27.1516ZM92.8972 42.2771H85.5925V35.4091C85.5925 35.4091 85.5925 33.8608 88.0141 33.8608H90.674C92.8178 33.8608 92.8575 35.4091 92.8575 35.4091V42.2771H92.8972Z" fill="#CC0000"/>
<path d="M111.993 27.1523H103.934V55.2596H111.993V27.1523Z" fill="#CC0000"/>
<path fill-rule="evenodd" clip-rule="evenodd" d="M123.306 47.9946V27.1523H115.287V47.9946V55.2596H123.306H134.144V47.9946H123.306Z" fill="#CC0000"/>
<path fill-rule="evenodd" clip-rule="evenodd" d="M2.7793 55.265H34.1419C34.1419 55.265 28.1473 27.912 47.997 16.8359C52.3243 14.7318 66.1 6.87131 88.6493 23.5451C89.3639 22.9496 90.0388 22.4732 90.0388 22.4732C90.0388 22.4732 69.3951 1.86917 46.4091 4.17174C34.8565 5.20393 20.6441 15.7243 12.3072 29.6191C3.97028 43.514 2.7793 55.265 2.7793 55.265Z" fill="#CC0000"/>
<path fill-rule="evenodd" clip-rule="evenodd" d="M2.7793 55.265H34.1419C34.1419 55.265 28.1473 27.912 47.997 16.8359C52.3243 14.7318 66.1 6.87131 88.6493 23.5451C89.3639 22.9496 90.0388 22.4732 90.0388 22.4732C90.0388 22.4732 69.3951 1.86917 46.4091 4.17174C34.8565 5.20393 20.6441 15.7243 12.3072 29.6191C3.97028 43.514 2.7793 55.265 2.7793 55.265Z" fill="#CC0000"/>
<path fill-rule="evenodd" clip-rule="evenodd" d="M2.7793 55.2612H34.1419C34.1419 55.2612 28.1473 27.9083 47.997 16.8321C52.3243 14.728 66.1 6.86754 88.6493 23.5413C89.3639 22.9458 90.0388 22.4694 90.0388 22.4694C90.0388 22.4694 69.3951 1.8654 46.4091 4.16797C34.8168 5.20016 20.6044 15.7205 12.2675 29.6154C3.93058 43.5102 2.7793 55.2612 2.7793 55.2612ZM68.1247 6.39115L68.2835 3.73128C67.9262 3.53278 66.9337 3.05639 64.4326 2.3418L64.2738 4.96196C65.5839 5.39866 66.8543 5.87505 68.1247 6.39115Z" fill="#CC0000"/>
<path fill-rule="evenodd" clip-rule="evenodd" d="M64.3529 14.8079L64.1941 17.309C65.5042 17.3487 66.8143 17.5075 68.1244 17.7854L68.2832 15.324C66.9334 15.0461 65.6233 14.8873 64.3529 14.8079ZM49.6641 2.42167H50.0611L49.2671 0C48.0364 0 46.766 0.079399 45.4559 0.238197L46.2102 2.58047C47.3615 2.46137 48.5128 2.42167 49.6641 2.42167ZM51.5697 17.0311L52.4827 19.7704C53.634 19.2146 54.7853 18.7382 55.9366 18.3809L55.0632 15.7607C53.7134 16.1577 52.5621 16.5944 51.5697 17.0311ZM33.5461 6.59012L31.7596 3.85085C30.7671 4.36695 29.7349 4.92274 28.663 5.55793L30.4892 8.3369C31.5214 7.7017 32.5139 7.10621 33.5461 6.59012ZM41.6845 24.4549L43.5901 27.3133C44.265 26.3208 45.0589 25.4077 45.9323 24.4946L44.1459 21.795C43.2328 22.6287 42.3991 23.5418 41.6845 24.4549ZM35.9281 37.2381L39.1437 39.7789C39.3025 38.2306 39.5804 36.6823 39.9774 35.1341L37.119 32.8712C36.6029 34.3401 36.2457 35.809 35.9281 37.2381ZM18.5397 18.3809L15.721 15.9195C14.6888 16.912 13.6963 17.9045 12.7832 18.897L15.8401 21.5171C16.6738 20.4452 17.5869 19.3734 18.5397 18.3809ZM6.55042 36.1266L1.98498 34.4592C1.23068 36.1662 0.396995 38.1512 0 39.2231L4.56544 40.8905C5.08154 39.5407 5.91523 37.5954 6.55042 36.1266ZM35.3326 47.3218C35.412 49.4259 35.6105 51.133 35.809 52.324L40.5729 54.031C40.2156 52.4827 39.8583 50.736 39.6201 48.8701L35.3326 47.3218Z" fill="#CC0000"/>
</svg>
