<svg width="121" height="106" viewBox="0 0 121 106" fill="none" xmlns="http://www.w3.org/2000/svg">
<path fill-rule="evenodd" clip-rule="evenodd" d="M22.8413 71.6533C22.7579 71.6256 22.6745 71.5979 22.5911 71.5702C9.56892 67.111 0 59.7742 0 52.4524C0 45.3658 8.98337 38.5144 21.51 34.1754C22.8963 33.6799 24.3727 33.2094 25.8741 32.7891C25.5488 31.4728 25.2686 30.1866 25.0083 28.8704C22.4259 15.6481 24.2576 5.06822 30.4033 1.49989C36.8093 -2.23359 47.5043 1.75513 58.1792 11.234C58.839 11.8244 59.488 12.4268 60.126 13.0406C61.0669 12.1248 62.0478 11.2089 63.0588 10.3431C73.2383 1.47487 83.3026 -2.20856 89.4734 1.33474C95.8794 5.0432 97.7811 16.2737 94.8934 30.2567C94.7083 31.1225 94.5181 31.9933 94.3079 32.8591C95.5804 33.2373 96.8468 33.6411 98.1064 34.0602C110.868 38.4493 120.112 45.3458 120.112 52.4524C120.112 59.8893 110.308 67.1411 96.7702 71.6202L96.668 71.6532C95.9718 71.8773 95.2788 72.1005 94.5631 72.3009C94.8169 73.3527 95.0521 74.4088 95.2688 75.4688C97.9413 88.9814 95.8794 100.077 89.5435 103.735C83.4177 107.273 73.4935 103.78 63.4541 95.1472C62.3781 94.2113 61.2971 93.2504 60.2662 92.2395C59.4454 93.0402 58.6246 93.7909 57.8039 94.5166C47.4342 103.595 36.7843 107.349 30.4484 103.69C24.3027 100.147 22.3809 89.8272 24.8432 76.8051C25.1284 75.3737 25.4337 73.9874 25.784 72.5811C24.7884 72.3 23.814 71.9763 22.8413 71.6533ZM41.2635 98.9657C46.143 97.036 50.6278 94.2288 54.4958 90.683L54.4908 90.678C55.2415 90.0224 55.9922 89.3167 56.7429 88.5911C53.0949 84.6412 49.7095 80.4567 46.6084 76.0644C41.2334 75.669 35.9335 74.8933 30.6786 73.7672C30.3533 75.0584 30.073 76.3747 29.8128 77.6859C27.7008 88.8313 29.2523 97.114 32.9807 99.271C35.6582 100.327 38.661 100.207 41.2635 98.9657ZM80.8854 40.4862C82.059 42.5128 83.1936 44.5618 84.2886 46.632C85.7248 43.307 86.9861 39.9092 88.0671 36.4525C84.6889 35.6768 81.0756 35.0462 77.297 34.5757C78.5382 36.5225 79.7343 38.4944 80.8854 40.4862ZM88.2973 68.7075C87.1512 65.1642 85.835 61.716 84.3336 58.3128C82.1578 62.5032 79.8017 66.5975 77.272 70.5843C80.9805 70.1639 84.6589 69.5283 88.2973 68.7075ZM70.8811 71.1948C74.8845 65.2084 78.4729 58.9546 81.6211 52.4774C80.0305 49.262 78.333 46.1006 76.5313 42.9986C74.7246 39.9007 72.8229 36.8779 70.831 33.9201C63.6608 33.3893 56.4612 33.3893 49.2909 33.9201C45.2405 39.8538 41.6484 46.0876 38.5459 52.5675H38.5559C41.684 59.056 45.2993 65.298 49.371 71.2399C52.8192 71.4551 56.3825 71.5702 60.066 71.5702C63.7494 71.5702 67.3878 71.4551 70.8811 71.1948ZM35.8634 46.627C36.9194 44.56 38.0455 42.5231 39.1965 40.5313C40.3476 38.5094 41.5687 36.5175 42.8049 34.5707C39.0764 35.0412 35.4881 35.6517 32.1099 36.4024C33.194 39.8697 34.4466 43.2819 35.8634 46.627ZM39.2216 64.6237C38.0505 62.6068 36.9494 60.5649 35.8684 58.498C34.367 62.0663 33.0758 65.5596 32.0449 68.9377C35.6403 69.713 39.2736 70.301 42.93 70.6994C41.6388 68.7075 40.4177 66.6656 39.2216 64.6237ZM53.1395 76.4648C55.3631 79.4206 57.735 82.2619 60.2462 84.9777C62.7169 82.2617 65.0359 79.4113 67.1926 76.4397C62.5107 76.648 57.8221 76.6564 53.1395 76.4648ZM89.7331 96.094C90.3993 94.8321 90.7998 93.447 90.9097 92.0243C91.6683 86.8473 91.4698 81.5751 90.3242 76.4698C90.134 75.5289 89.9238 74.568 89.6886 73.6071C84.4193 74.8003 79.0729 75.6231 73.6887 76.0694C70.6818 80.4825 67.3743 84.6831 63.7895 88.6411C64.764 89.56 65.7568 90.4593 66.7672 91.3386C75.3552 98.7055 83.3076 101.518 87.0361 99.3611C88.1489 98.4678 89.0668 97.3559 89.7331 96.094ZM96.4649 38.7947C95.3389 38.4193 94.1678 38.044 92.9466 37.6936C91.3551 42.7333 89.4534 47.6629 87.2013 52.4474C89.53 57.2965 91.528 62.2976 93.1818 67.4163C93.8625 67.2262 94.5181 67.016 95.1737 66.8058C106.88 62.9372 115.067 57.0016 115.067 52.4023C115.067 48.1334 107.395 42.5481 96.4649 38.7947ZM86.941 5.69881C83.2326 3.56682 75.095 6.5446 66.3619 14.1417C65.426 14.9624 64.5351 15.7832 63.6193 16.649C67.2289 20.5719 70.568 24.7354 73.6136 29.1106C78.9261 29.5897 84.2009 30.4206 89.4033 31.5979C89.607 30.8212 89.7873 30.0384 89.9438 29.2508C92.4311 17.1695 90.9047 7.97593 86.941 5.69881ZM67.0475 28.6352C64.8905 25.7275 62.5683 22.9149 60.106 20.2424C57.7588 22.7997 55.3866 25.6124 53.0895 28.6352C57.7398 28.425 62.3972 28.425 67.0475 28.6352ZM54.8011 15.0125C45.5825 6.84988 36.8343 3.56682 32.8907 5.86396C29.1822 7.99595 27.7258 16.5539 29.9329 27.9095C29.9545 28.0107 29.976 28.112 29.9975 28.2132C30.2358 29.3329 30.4737 30.4509 30.7537 31.5479C35.9505 30.3955 41.2164 29.5797 46.5184 29.1056C49.5882 24.7326 52.9507 20.5726 56.5827 16.654C56.3617 16.4511 56.1439 16.2475 55.9283 16.0459C55.5482 15.6906 55.1746 15.3413 54.8011 15.0125ZM27.2154 37.6436C25.8541 38.044 24.4928 38.4643 23.1566 38.9348C12.4566 42.6633 5.0447 48.1534 5.0447 52.4474C5.26657 53.8544 5.77175 55.2018 6.52963 56.4078C7.28751 57.6139 8.28232 58.6536 9.45381 59.4639C13.5576 62.722 19.2379 65.2093 24.2326 66.7807C25.1933 67.1123 26.1629 67.4177 27.1403 67.6966L27.1453 67.6916C28.7618 62.5318 30.7086 57.4671 32.9607 52.5625C30.7293 47.7172 28.8103 42.734 27.2154 37.6436ZM70.8017 52.5447C70.8017 58.479 65.9909 63.2898 60.0566 63.2898C54.1223 63.2898 49.3116 58.479 49.3116 52.5447C49.3116 46.6104 54.1223 41.7997 60.0566 41.7997C65.9909 41.7997 70.8017 46.6104 70.8017 52.5447Z" fill="#61DAF8"/>
</svg>
