<svg width="80" height="70" viewBox="0 0 80 70" fill="none" xmlns="http://www.w3.org/2000/svg">
<path fill-rule="evenodd" clip-rule="evenodd" d="M15.3033 47.6575C15.2478 47.6391 15.1924 47.6207 15.1369 47.6023C6.47574 44.6364 0.111328 39.7566 0.111328 34.8868C0.111328 30.1734 6.08629 25.6164 14.4179 22.7305C15.34 22.4009 16.3219 22.088 17.3205 21.8084C17.1042 20.933 16.9178 20.0775 16.7447 19.2021C15.0271 10.4077 16.2454 3.37094 20.333 0.997599C24.5937 -1.48559 31.7071 1.16736 38.8071 7.47186C39.2459 7.86459 39.6776 8.2652 40.102 8.67351C40.7277 8.06436 41.3802 7.45522 42.0526 6.87936C48.8231 0.980955 55.517 -1.46895 59.6213 0.887753C63.882 3.3543 65.1469 10.8238 63.2262 20.1241C63.1031 20.7 62.9766 21.2792 62.8368 21.855C63.6832 22.1066 64.5254 22.3751 65.3632 22.6539C73.8513 25.5732 79.9994 30.1601 79.9994 34.8868C79.9994 39.8332 73.4785 44.6564 64.4745 47.6356L64.4067 47.6574C63.9435 47.8065 63.4826 47.955 63.0065 48.0883C63.1753 48.7878 63.3318 49.4903 63.4759 50.1953C65.2534 59.1827 63.882 66.5624 59.6679 68.9957C55.5936 71.349 48.9928 69.0256 42.3155 63.2836C41.5999 62.6612 40.8809 62.0221 40.1952 61.3497C39.6493 61.8823 39.1034 62.3816 38.5575 62.8642C31.6605 68.9024 24.577 71.3989 20.3629 68.9657C16.2753 66.609 14.9971 59.7453 16.6348 51.0841C16.8246 50.1321 17.0276 49.21 17.2606 48.2747C16.5984 48.0877 15.9503 47.8724 15.3033 47.6575ZM27.5562 65.8234C30.8017 64.5399 33.7845 62.6728 36.3572 60.3145L36.3539 60.3111C36.8532 59.8751 37.3525 59.4058 37.8518 58.9231C35.4254 56.296 33.1738 53.5128 31.1112 50.5914C27.5362 50.3285 24.0112 49.8125 20.5161 49.0636C20.2997 49.9224 20.1133 50.7978 19.9402 51.6699C18.5355 59.0829 19.5674 64.5918 22.0473 66.0265C23.8281 66.7288 25.8253 66.6489 27.5562 65.8234ZM53.9093 26.9279C54.6899 28.2759 55.4445 29.6386 56.1728 31.0155C57.128 28.8041 57.9669 26.5442 58.6859 24.245C56.4391 23.7291 54.0358 23.3097 51.5226 22.9968C52.3481 24.2916 53.1437 25.6031 53.9093 26.9279ZM58.839 45.6983C58.0768 43.3416 57.2013 41.0481 56.2027 38.7846C54.7556 41.5717 53.1885 44.2949 51.506 46.9465C53.9725 46.6669 56.4191 46.2442 58.839 45.6983ZM47.2553 47.3526C49.918 43.371 52.3047 39.2115 54.3986 34.9034C53.3407 32.7648 52.2117 30.6621 51.0133 28.5989C49.8117 26.5385 48.5468 24.528 47.222 22.5607C42.453 22.2077 37.6644 22.2077 32.8954 22.5607C30.2014 26.5073 27.8123 30.6535 25.7487 34.9633H25.7554C27.8359 39.2789 30.2405 43.4306 32.9486 47.3826C35.2421 47.5257 37.6121 47.6023 40.062 47.6023C42.5119 47.6023 44.9319 47.5257 47.2553 47.3526ZM23.9646 31.0122C24.6669 29.6375 25.4159 28.2827 26.1815 26.9579C26.9471 25.6131 27.7593 24.2883 28.5814 22.9934C26.1016 23.3063 23.7149 23.7124 21.4681 24.2117C22.1891 26.5178 23.0222 28.7874 23.9646 31.0122ZM26.1981 42.9821C25.4192 41.6406 24.6869 40.2826 23.9679 38.9078C22.9693 41.2812 22.1105 43.6046 21.4248 45.8514C23.8162 46.367 26.2327 46.7581 28.6646 47.0231C27.8059 45.6983 26.9937 44.3402 26.1981 42.9821ZM35.4551 50.8577C36.934 52.8237 38.5116 54.7135 40.1818 56.5198C41.8252 54.7133 43.3676 52.8175 44.802 50.8411C41.6881 50.9796 38.5696 50.9852 35.4551 50.8577ZM59.794 63.9134C60.2371 63.0741 60.5035 62.1529 60.5766 61.2066C61.0811 57.7633 60.9491 54.2567 60.1871 50.8611C60.0607 50.2353 59.9208 49.5962 59.7644 48.9571C56.2597 49.7507 52.7038 50.2979 49.1226 50.5948C47.1228 53.53 44.9228 56.3238 42.5385 58.9564C43.1868 59.5675 43.8471 60.1657 44.5191 60.7505C50.2311 65.6503 55.5204 67.521 58.0002 66.0864C58.7404 65.4923 59.3508 64.7527 59.794 63.9134ZM64.2714 25.8028C63.5225 25.5532 62.7436 25.3035 61.9314 25.0705C60.8729 28.4225 59.608 31.7012 58.1101 34.8834C59.6589 38.1087 60.9878 41.4349 62.0878 44.8395C62.5405 44.713 62.9766 44.5732 63.4126 44.4334C71.1984 41.8603 76.6441 37.9125 76.6441 34.8535C76.6441 32.0141 71.5412 28.2993 64.2714 25.8028ZM57.937 3.79035C55.4704 2.37234 50.058 4.3529 44.2495 9.40582C43.627 9.95172 43.0345 10.4976 42.4254 11.0735C44.8262 13.6827 47.047 16.4518 49.0727 19.3619C52.6061 19.6805 56.1145 20.2332 59.5747 21.0162C59.7102 20.4996 59.83 19.9789 59.9342 19.4551C61.5885 11.4197 60.5733 5.3049 57.937 3.79035ZM44.7055 19.0456C43.2709 17.1117 41.7263 15.241 40.0886 13.4635C38.5275 15.1644 36.9497 17.0351 35.4218 19.0456C38.5148 18.9058 41.6125 18.9058 44.7055 19.0456ZM36.5602 9.98501C30.4288 4.55595 24.6103 2.37234 21.9873 3.9002C19.5208 5.31821 18.5522 11.0102 20.0201 18.563C20.0345 18.6303 20.0488 18.6977 20.0631 18.765C20.2216 19.5098 20.3798 20.2533 20.566 20.9829C24.0225 20.2165 27.5249 19.6739 31.0513 19.3585C33.0931 16.45 35.3295 13.6831 37.7453 11.0768C37.5983 10.9419 37.4534 10.8065 37.31 10.6724C37.0572 10.436 36.8087 10.2038 36.5602 9.98501ZM18.2126 25.0372C17.3072 25.3035 16.4018 25.5831 15.5131 25.896C8.39638 28.3759 3.46663 32.0275 3.46663 34.8834C3.6142 35.8193 3.95019 36.7154 4.45427 37.5176C4.95835 38.3198 5.62001 39.0113 6.39918 39.5502C9.12869 41.7172 12.9067 43.3716 16.2287 44.4168C16.8678 44.6373 17.5126 44.8404 18.1627 45.0259L18.166 45.0226C19.2412 41.5907 20.536 38.2221 22.0339 34.96C20.5498 31.7373 19.2734 28.423 18.2126 25.0372ZM47.2024 34.9489C47.2024 38.8959 44.0027 42.0956 40.0557 42.0956C36.1087 42.0956 32.9091 38.8959 32.9091 34.9489C32.9091 31.0019 36.1087 27.8023 40.0557 27.8023C44.0027 27.8023 47.2024 31.0019 47.2024 34.9489Z" fill="#61DAF8"/>
</svg>
