<svg width="116" height="100" viewBox="0 0 116 100" fill="none" xmlns="http://www.w3.org/2000/svg">
<path d="M71.4981 0C122.494 33.5286 105.957 70.3714 105.957 70.3714C105.957 70.3714 120.442 86.1643 114.62 100C114.62 100 108.61 90.3357 98.6344 90.3357C88.9921 90.3357 83.2864 100 63.8205 100C20.5244 100 0 65.0429 0 65.0429C39.0188 89.9 65.6765 72.2857 65.6765 72.2857C48.0593 62.4429 10.6935 15.3071 10.6935 15.3071C43.2672 42.1 57.3247 49.1357 57.3247 49.1357C48.8713 42.45 25.3165 9.68571 25.3165 9.68571C44.1662 28.1071 81.6335 53.7929 81.6335 53.7929C92.3778 25.4071 71.4981 0 71.4981 0Z" fill="#FF5722"/>
</svg>
